G04 #@! TF.GenerationSoftware,KiCad,Pcbnew,9.0.7*
G04 #@! TF.CreationDate,2026-05-20T17:19:45+02:00*
G04 #@! TF.ProjectId,schema,73636865-6d61-42e6-9b69-6361645f7063,rev?*
G04 #@! TF.SameCoordinates,Original*
G04 #@! TF.FileFunction,Copper,L1,Top*
G04 #@! TF.FilePolarity,Positive*
%FSLAX46Y46*%
G04 Gerber Fmt 4.6, Leading zero omitted, Abs format (unit mm)*
G04 Created by KiCad (PCBNEW 9.0.7) date 2026-05-20 17:19:45*
%MOMM*%
%LPD*%
G01*
G04 APERTURE LIST*
%ADD10C,0.300000*%
G04 #@! TA.AperFunction,ComponentPad*
%ADD11R,2.000000X2.500000*%
G04 #@! TD*
G04 #@! TA.AperFunction,ComponentPad*
%ADD12O,2.000000X2.500000*%
G04 #@! TD*
G04 #@! TA.AperFunction,ComponentPad*
%ADD13R,2.200000X1.800000*%
G04 #@! TD*
G04 #@! TA.AperFunction,ComponentPad*
%ADD14O,2.200000X1.800000*%
G04 #@! TD*
G04 #@! TA.AperFunction,ComponentPad*
%ADD15C,1.800000*%
G04 #@! TD*
G04 #@! TA.AperFunction,ComponentPad*
%ADD16C,1.600000*%
G04 #@! TD*
G04 #@! TA.AperFunction,ComponentPad*
%ADD17R,1.700000X1.700000*%
G04 #@! TD*
G04 #@! TA.AperFunction,ComponentPad*
%ADD18C,1.700000*%
G04 #@! TD*
G04 #@! TA.AperFunction,ComponentPad*
%ADD19R,1.600000X1.600000*%
G04 #@! TD*
G04 #@! TA.AperFunction,ComponentPad*
%ADD20O,1.600000X1.600000*%
G04 #@! TD*
G04 #@! TA.AperFunction,Conductor*
%ADD21C,0.800000*%
G04 #@! TD*
G04 APERTURE END LIST*
D10*
G36*
X172228216Y-59617390D02*
G01*
X164737843Y-59617390D01*
X164737843Y-57800828D01*
X164904510Y-57800828D01*
X164904510Y-59300828D01*
X164907392Y-59330092D01*
X164929790Y-59384164D01*
X164971174Y-59425548D01*
X165025246Y-59447946D01*
X165083774Y-59447946D01*
X165137846Y-59425548D01*
X165179230Y-59384164D01*
X165201628Y-59330092D01*
X165204510Y-59300828D01*
X165204510Y-58476961D01*
X165418583Y-58935690D01*
X165424929Y-58946403D01*
X165426250Y-58950035D01*
X165428601Y-58952603D01*
X165433570Y-58960990D01*
X165450375Y-58976380D01*
X165465777Y-58993198D01*
X165471820Y-58996018D01*
X165476733Y-59000517D01*
X165498153Y-59008306D01*
X165518815Y-59017948D01*
X165525472Y-59018240D01*
X165531735Y-59020518D01*
X165554514Y-59019517D01*
X165577285Y-59020518D01*
X165583544Y-59018241D01*
X165590206Y-59017949D01*
X165610873Y-59008304D01*
X165632288Y-59000517D01*
X165637201Y-58996017D01*
X165643243Y-58993198D01*
X165658638Y-58976385D01*
X165675451Y-58960990D01*
X165680419Y-58952601D01*
X165682770Y-58950035D01*
X165684089Y-58946405D01*
X165690437Y-58935690D01*
X165904510Y-58476962D01*
X165904510Y-59300828D01*
X165907392Y-59330092D01*
X165929790Y-59384164D01*
X165971174Y-59425548D01*
X166025246Y-59447946D01*
X166083774Y-59447946D01*
X166137846Y-59425548D01*
X166179230Y-59384164D01*
X166201628Y-59330092D01*
X166204510Y-59300828D01*
X166204510Y-57800828D01*
X166618796Y-57800828D01*
X166618796Y-59300828D01*
X166621678Y-59330092D01*
X166644076Y-59384164D01*
X166685460Y-59425548D01*
X166739532Y-59447946D01*
X166798060Y-59447946D01*
X166852132Y-59425548D01*
X166893516Y-59384164D01*
X166915914Y-59330092D01*
X166918796Y-59300828D01*
X166918796Y-58365661D01*
X167495703Y-59375249D01*
X167500080Y-59381416D01*
X167501219Y-59384164D01*
X167504018Y-59386963D01*
X167512724Y-59399227D01*
X167528497Y-59411442D01*
X167542603Y-59425548D01*
X167551436Y-59429206D01*
X167558998Y-59435063D01*
X167578246Y-59440312D01*
X167596675Y-59447946D01*
X167606237Y-59447946D01*
X167615462Y-59450462D01*
X167635253Y-59447946D01*
X167655203Y-59447946D01*
X167664036Y-59444286D01*
X167673522Y-59443081D01*
X167690844Y-59433182D01*
X167709275Y-59425548D01*
X167716035Y-59418787D01*
X167724338Y-59414043D01*
X167736551Y-59398271D01*
X167750659Y-59384164D01*
X167754318Y-59375328D01*
X167760173Y-59367769D01*
X167765421Y-59348524D01*
X167773057Y-59330092D01*
X167774530Y-59315127D01*
X167775573Y-59311306D01*
X167775197Y-59308354D01*
X167775939Y-59300828D01*
X167775939Y-57800828D01*
X169333082Y-57800828D01*
X169333082Y-59300828D01*
X169335964Y-59330092D01*
X169358362Y-59384164D01*
X169399746Y-59425548D01*
X169453818Y-59447946D01*
X169512346Y-59447946D01*
X169566418Y-59425548D01*
X169607802Y-59384164D01*
X169630200Y-59330092D01*
X169633082Y-59300828D01*
X169633082Y-58665114D01*
X169983082Y-58665114D01*
X170012346Y-58662232D01*
X170066418Y-58639834D01*
X170107802Y-58598450D01*
X170130200Y-58544378D01*
X170130200Y-58485850D01*
X170107802Y-58431778D01*
X170066418Y-58390394D01*
X170012346Y-58367996D01*
X169983082Y-58365114D01*
X169633082Y-58365114D01*
X169633082Y-57950828D01*
X170197368Y-57950828D01*
X170226632Y-57947946D01*
X170280704Y-57925548D01*
X170322088Y-57884164D01*
X170344486Y-57830092D01*
X170344486Y-57806435D01*
X170476044Y-57806435D01*
X170480018Y-57835571D01*
X170837161Y-59335571D01*
X170840622Y-59345614D01*
X170841101Y-59349214D01*
X170842984Y-59352467D01*
X170846743Y-59363372D01*
X170859514Y-59381019D01*
X170870424Y-59399864D01*
X170876539Y-59404545D01*
X170881056Y-59410786D01*
X170899606Y-59422201D01*
X170916899Y-59435438D01*
X170924340Y-59437422D01*
X170930900Y-59441459D01*
X170952403Y-59444906D01*
X170973451Y-59450519D01*
X170981086Y-59449504D01*
X170988689Y-59450723D01*
X171009878Y-59445678D01*
X171031468Y-59442809D01*
X171038131Y-59438951D01*
X171045626Y-59437167D01*
X171063273Y-59424395D01*
X171082118Y-59413486D01*
X171086799Y-59407370D01*
X171093040Y-59402854D01*
X171104455Y-59384303D01*
X171117692Y-59367011D01*
X171121739Y-59356216D01*
X171123713Y-59353010D01*
X171124288Y-59349419D01*
X171128017Y-59339477D01*
X171268796Y-58811554D01*
X171409576Y-59339477D01*
X171413304Y-59349419D01*
X171413880Y-59353010D01*
X171415853Y-59356216D01*
X171419901Y-59367011D01*
X171433137Y-59384303D01*
X171444553Y-59402854D01*
X171450793Y-59407370D01*
X171455475Y-59413486D01*
X171474319Y-59424395D01*
X171491967Y-59437167D01*
X171499461Y-59438951D01*
X171506125Y-59442809D01*
X171527714Y-59445678D01*
X171548904Y-59450723D01*
X171556506Y-59449504D01*
X171564142Y-59450519D01*
X171585189Y-59444906D01*
X171606693Y-59441459D01*
X171613252Y-59437422D01*
X171620694Y-59435438D01*
X171637986Y-59422201D01*
X171656537Y-59410786D01*
X171661053Y-59404545D01*
X171667169Y-59399864D01*
X171678078Y-59381019D01*
X171690850Y-59363372D01*
X171694608Y-59352467D01*
X171696492Y-59349214D01*
X171696970Y-59345614D01*
X171700432Y-59335571D01*
X172057575Y-57835571D01*
X172061549Y-57806435D01*
X172052285Y-57748646D01*
X172021612Y-57698802D01*
X171974198Y-57664489D01*
X171917261Y-57650933D01*
X171859472Y-57660197D01*
X171809628Y-57690870D01*
X171775315Y-57738284D01*
X171765733Y-57766085D01*
X171546277Y-58687797D01*
X171413731Y-58190750D01*
X171411159Y-58183893D01*
X171410777Y-58181014D01*
X171408798Y-58177595D01*
X171403406Y-58163217D01*
X171391371Y-58147495D01*
X171381454Y-58130364D01*
X171373738Y-58124457D01*
X171367832Y-58116742D01*
X171350700Y-58106824D01*
X171334979Y-58094790D01*
X171325588Y-58092285D01*
X171317182Y-58087419D01*
X171297560Y-58084811D01*
X171278427Y-58079709D01*
X171268796Y-58080988D01*
X171259165Y-58079709D01*
X171240031Y-58084811D01*
X171220410Y-58087419D01*
X171212003Y-58092285D01*
X171202613Y-58094790D01*
X171186891Y-58106824D01*
X171169760Y-58116742D01*
X171163853Y-58124457D01*
X171156138Y-58130364D01*
X171146220Y-58147495D01*
X171134186Y-58163217D01*
X171128794Y-58177594D01*
X171126815Y-58181014D01*
X171126432Y-58183894D01*
X171123861Y-58190751D01*
X170991315Y-58687797D01*
X170771860Y-57766085D01*
X170762278Y-57738284D01*
X170727965Y-57690870D01*
X170678121Y-57660197D01*
X170620332Y-57650933D01*
X170563395Y-57664489D01*
X170515981Y-57698802D01*
X170485308Y-57748646D01*
X170476044Y-57806435D01*
X170344486Y-57806435D01*
X170344486Y-57771564D01*
X170322088Y-57717492D01*
X170280704Y-57676108D01*
X170226632Y-57653710D01*
X170197368Y-57650828D01*
X169483082Y-57650828D01*
X169453818Y-57653710D01*
X169399746Y-57676108D01*
X169358362Y-57717492D01*
X169335964Y-57771564D01*
X169333082Y-57800828D01*
X167775939Y-57800828D01*
X167773057Y-57771564D01*
X167750659Y-57717492D01*
X167709275Y-57676108D01*
X167655203Y-57653710D01*
X167596675Y-57653710D01*
X167542603Y-57676108D01*
X167501219Y-57717492D01*
X167478821Y-57771564D01*
X167475939Y-57800828D01*
X167475939Y-58735992D01*
X166899032Y-57726407D01*
X166894654Y-57720239D01*
X166893516Y-57717492D01*
X166890716Y-57714692D01*
X166882011Y-57702429D01*
X166866239Y-57690215D01*
X166852132Y-57676108D01*
X166843296Y-57672448D01*
X166835737Y-57666594D01*
X166816492Y-57661345D01*
X166798060Y-57653710D01*
X166788498Y-57653710D01*
X166779273Y-57651194D01*
X166759482Y-57653710D01*
X166739532Y-57653710D01*
X166730698Y-57657369D01*
X166721213Y-57658575D01*
X166703890Y-57668473D01*
X166685460Y-57676108D01*
X166678699Y-57682868D01*
X166670397Y-57687613D01*
X166658183Y-57703384D01*
X166644076Y-57717492D01*
X166640416Y-57726327D01*
X166634562Y-57733887D01*
X166629313Y-57753131D01*
X166621678Y-57771564D01*
X166620204Y-57786530D01*
X166619162Y-57790351D01*
X166619537Y-57793302D01*
X166618796Y-57800828D01*
X166204510Y-57800828D01*
X166202615Y-57781590D01*
X166202771Y-57778052D01*
X166202079Y-57776151D01*
X166201628Y-57771564D01*
X166191667Y-57747518D01*
X166182770Y-57723050D01*
X166180510Y-57720582D01*
X166179230Y-57717492D01*
X166160832Y-57699094D01*
X166143243Y-57679887D01*
X166140209Y-57678471D01*
X166137846Y-57676108D01*
X166113815Y-57666154D01*
X166090206Y-57655136D01*
X166086861Y-57654989D01*
X166083774Y-57653710D01*
X166057750Y-57653710D01*
X166031735Y-57652567D01*
X166028592Y-57653710D01*
X166025246Y-57653710D01*
X166001193Y-57663673D01*
X165976733Y-57672568D01*
X165974265Y-57674827D01*
X165971174Y-57676108D01*
X165952765Y-57694516D01*
X165933570Y-57712095D01*
X165931220Y-57716061D01*
X165929790Y-57717492D01*
X165928434Y-57720764D01*
X165918583Y-57737395D01*
X165554510Y-58517551D01*
X165190437Y-57737395D01*
X165180583Y-57720760D01*
X165179230Y-57717492D01*
X165177801Y-57716063D01*
X165175451Y-57712095D01*
X165156243Y-57694505D01*
X165137846Y-57676108D01*
X165134755Y-57674827D01*
X165132288Y-57672568D01*
X165107822Y-57663671D01*
X165083774Y-57653710D01*
X165080428Y-57653710D01*
X165077285Y-57652567D01*
X165051281Y-57653710D01*
X165025246Y-57653710D01*
X165022155Y-57654990D01*
X165018815Y-57655137D01*
X164995219Y-57666147D01*
X164971174Y-57676108D01*
X164968810Y-57678471D01*
X164965777Y-57679887D01*
X164948187Y-57699094D01*
X164929790Y-57717492D01*
X164928509Y-57720582D01*
X164926250Y-57723050D01*
X164917353Y-57747515D01*
X164907392Y-57771564D01*
X164906940Y-57776152D01*
X164906249Y-57778053D01*
X164906404Y-57781591D01*
X164904510Y-57800828D01*
X164737843Y-57800828D01*
X164737843Y-57484161D01*
X172228216Y-57484161D01*
X172228216Y-59617390D01*
G37*
D11*
X152960000Y-81445000D03*
D12*
X155500000Y-81445000D03*
X158040000Y-81445000D03*
D13*
X177500000Y-76500000D03*
D14*
X177500000Y-79040000D03*
D15*
X163000000Y-79000000D03*
X168000000Y-79000000D03*
D16*
X126500000Y-79080000D03*
X126500000Y-68920000D03*
D17*
X115500000Y-79580000D03*
D18*
X115500000Y-77040000D03*
X115500000Y-74500000D03*
D17*
X115500000Y-90040000D03*
D18*
X115500000Y-87500000D03*
X115500000Y-84960000D03*
D17*
X115500000Y-69910000D03*
D18*
X115500000Y-67370000D03*
X115500000Y-64830000D03*
D16*
X126500000Y-92580000D03*
X126500000Y-82420000D03*
D15*
X162000000Y-91000000D03*
X162000000Y-86000000D03*
D19*
X151440000Y-56740000D03*
D20*
X148900000Y-56740000D03*
X146360000Y-56740000D03*
X143820000Y-56740000D03*
X141280000Y-56740000D03*
X138740000Y-56740000D03*
X136200000Y-56740000D03*
X133660000Y-56740000D03*
X128580000Y-56740000D03*
X126040000Y-56740000D03*
X123500000Y-56740000D03*
X120960000Y-56740000D03*
X118420000Y-56740000D03*
X115880000Y-56740000D03*
X115880000Y-105000000D03*
X118420000Y-105000000D03*
X120960000Y-105000000D03*
X123500000Y-105000000D03*
X126040000Y-105000000D03*
X128580000Y-105000000D03*
X131120000Y-105000000D03*
X133660000Y-105000000D03*
X137720000Y-105000000D03*
X140260000Y-105000000D03*
X142800000Y-105000000D03*
X145340000Y-105000000D03*
X147880000Y-105000000D03*
X150420000Y-105000000D03*
X152960000Y-105000000D03*
X155500000Y-105000000D03*
X158040000Y-105000000D03*
X160580000Y-105000000D03*
D21*
X118500000Y-87500000D02*
X119500000Y-86500000D01*
X150000000Y-91000000D02*
X162000000Y-91000000D01*
X114000000Y-72000000D02*
X120420000Y-72000000D01*
X115460000Y-77000000D02*
X113500000Y-77000000D01*
X120420000Y-72000000D02*
X123500000Y-68920000D01*
X123580000Y-82420000D02*
X126500000Y-82420000D01*
X115500000Y-77040000D02*
X115540000Y-77000000D01*
X123500000Y-68920000D02*
X126500000Y-68920000D01*
X113301000Y-68199000D02*
X113301000Y-71301000D01*
X141420000Y-82420000D02*
X150000000Y-91000000D01*
X115500000Y-87500000D02*
X118500000Y-87500000D01*
X141420000Y-81580000D02*
X141280000Y-81440000D01*
X113500000Y-81082000D02*
X114838000Y-82420000D01*
X118000000Y-77000000D02*
X120420000Y-74580000D01*
X115500000Y-67370000D02*
X114130000Y-67370000D01*
X115540000Y-77000000D02*
X118000000Y-77000000D01*
X113301000Y-71301000D02*
X114000000Y-72000000D01*
X114130000Y-67370000D02*
X113301000Y-68199000D01*
X141280000Y-81440000D02*
X141280000Y-56740000D01*
X120420000Y-74580000D02*
X120420000Y-72000000D01*
X115500000Y-77040000D02*
X115460000Y-77000000D01*
X141420000Y-82420000D02*
X141420000Y-81580000D01*
X158040000Y-81445000D02*
X158040000Y-90540000D01*
X119500000Y-86500000D02*
X119500000Y-82420000D01*
X126500000Y-82420000D02*
X141420000Y-82420000D01*
X113500000Y-77000000D02*
X113500000Y-81082000D01*
X114838000Y-82420000D02*
X123580000Y-82420000D01*
X115540000Y-90000000D02*
X119500000Y-90000000D01*
X126500000Y-92580000D02*
X148580000Y-92580000D01*
X148580000Y-92580000D02*
X158040000Y-102040000D01*
X119500000Y-90000000D02*
X122080000Y-92580000D01*
X115500000Y-90040000D02*
X115540000Y-90000000D01*
X122080000Y-92580000D02*
X126500000Y-92580000D01*
X158040000Y-102040000D02*
X158040000Y-105000000D01*
X117090000Y-69910000D02*
X119000000Y-68000000D01*
X119000000Y-68000000D02*
X119000000Y-59860000D01*
X115500000Y-69910000D02*
X117090000Y-69910000D01*
X119000000Y-59860000D02*
X115880000Y-56740000D01*
X153500000Y-80905000D02*
X152960000Y-81445000D01*
X177500000Y-76500000D02*
X165500000Y-76500000D01*
X163000000Y-79000000D02*
X153355000Y-79000000D01*
X152960000Y-79395000D02*
X152960000Y-81445000D01*
X153355000Y-79000000D02*
X152960000Y-79395000D01*
X165500000Y-76500000D02*
X163000000Y-79000000D01*
X133460000Y-54000000D02*
X115500000Y-54000000D01*
X112000000Y-57500000D02*
X112000000Y-65000000D01*
X136000000Y-54000000D02*
X133460000Y-54000000D01*
X146500000Y-63000000D02*
X149500000Y-60000000D01*
X136200000Y-56740000D02*
X138740000Y-56740000D01*
X112000000Y-74500000D02*
X112000000Y-84000000D01*
X115500000Y-74500000D02*
X112000000Y-74500000D01*
X112000000Y-91000000D02*
X122500000Y-101500000D01*
X112170000Y-64830000D02*
X112000000Y-65000000D01*
X155500000Y-81445000D02*
X155500000Y-85000000D01*
X154000000Y-86500000D02*
X149500000Y-86500000D01*
X156000000Y-58000000D02*
X156000000Y-56000000D01*
X162000000Y-86000000D02*
X168000000Y-86000000D01*
X136200000Y-56740000D02*
X136200000Y-54200000D01*
X115500000Y-84960000D02*
X112040000Y-84960000D01*
X149500000Y-60000000D02*
X154000000Y-60000000D01*
X136200000Y-54200000D02*
X136000000Y-54000000D01*
X150500000Y-101500000D02*
X152960000Y-103960000D01*
X146500000Y-83500000D02*
X146500000Y-63000000D01*
X172000000Y-100500000D02*
X165500000Y-107000000D01*
X155500000Y-85000000D02*
X154000000Y-86500000D01*
X154480000Y-107000000D02*
X152960000Y-105480000D01*
X172000000Y-86000000D02*
X172000000Y-100500000D01*
X177500000Y-80500000D02*
X172000000Y-86000000D01*
X154000000Y-54000000D02*
X136000000Y-54000000D01*
X168000000Y-79000000D02*
X168000000Y-86000000D01*
X115500000Y-54000000D02*
X112000000Y-57500000D01*
X168000000Y-86000000D02*
X172000000Y-86000000D01*
X115500000Y-64830000D02*
X112170000Y-64830000D01*
X152960000Y-103960000D02*
X152960000Y-105000000D01*
X172000000Y-86000000D02*
X172000000Y-86500000D01*
X122500000Y-101500000D02*
X150500000Y-101500000D01*
X156000000Y-56000000D02*
X154000000Y-54000000D01*
X165500000Y-107000000D02*
X154480000Y-107000000D01*
X112000000Y-74500000D02*
X112000000Y-65000000D01*
X112040000Y-84960000D02*
X112000000Y-85000000D01*
X152960000Y-105480000D02*
X152960000Y-105000000D01*
X154000000Y-60000000D02*
X156000000Y-58000000D01*
X112000000Y-84000000D02*
X112000000Y-85000000D01*
X112170000Y-84170000D02*
X112000000Y-84000000D01*
X149500000Y-86500000D02*
X146500000Y-83500000D01*
X177500000Y-79040000D02*
X177500000Y-80500000D01*
X112000000Y-85000000D02*
X112000000Y-91000000D01*
X128920000Y-79080000D02*
X131500000Y-76500000D01*
X131500000Y-59660000D02*
X128580000Y-56740000D01*
X115500000Y-79580000D02*
X126000000Y-79580000D01*
X126000000Y-79580000D02*
X126500000Y-79080000D01*
X131500000Y-76500000D02*
X131500000Y-59660000D01*
X126500000Y-79080000D02*
X128920000Y-79080000D01*
G04 #@! TA.AperFunction,Conductor*
G36*
X179442539Y-53020185D02*
G01*
X179488294Y-53072989D01*
X179499500Y-53124500D01*
X179499500Y-74054636D01*
X179479815Y-74121675D01*
X179427011Y-74167430D01*
X179357853Y-74177374D01*
X179328048Y-74169197D01*
X179096113Y-74073127D01*
X178851151Y-74014317D01*
X178662887Y-73999500D01*
X178662882Y-73999500D01*
X176337118Y-73999500D01*
X176337112Y-73999500D01*
X176148848Y-74014317D01*
X175903889Y-74073126D01*
X175671140Y-74169533D01*
X175456346Y-74301160D01*
X175456343Y-74301161D01*
X175264776Y-74464776D01*
X175101161Y-74656343D01*
X175101160Y-74656346D01*
X174969533Y-74871140D01*
X174873126Y-75103889D01*
X174814317Y-75348848D01*
X174799500Y-75537112D01*
X174799500Y-75725500D01*
X174779815Y-75792539D01*
X174727011Y-75838294D01*
X174675500Y-75849500D01*
X165435929Y-75849500D01*
X165310261Y-75874497D01*
X165310255Y-75874499D01*
X165191874Y-75923534D01*
X165085326Y-75994726D01*
X164314529Y-76765523D01*
X164253206Y-76799008D01*
X164183514Y-76794024D01*
X164173047Y-76789562D01*
X163958419Y-76686203D01*
X163958411Y-76686200D01*
X163693329Y-76593443D01*
X163693317Y-76593439D01*
X163419512Y-76530945D01*
X163419494Y-76530942D01*
X163140431Y-76499500D01*
X163140425Y-76499500D01*
X162859575Y-76499500D01*
X162859568Y-76499500D01*
X162580505Y-76530942D01*
X162580487Y-76530945D01*
X162306682Y-76593439D01*
X162306670Y-76593443D01*
X162041588Y-76686200D01*
X161788557Y-76808053D01*
X161550753Y-76957476D01*
X161331175Y-77132583D01*
X161132583Y-77331175D01*
X160957476Y-77550753D01*
X160808053Y-77788557D01*
X160686200Y-78041588D01*
X160607515Y-78266455D01*
X160566793Y-78323231D01*
X160501841Y-78348978D01*
X160490474Y-78349500D01*
X153290929Y-78349500D01*
X153165261Y-78374497D01*
X153165255Y-78374499D01*
X153046870Y-78423535D01*
X152940331Y-78494722D01*
X152940330Y-78494723D01*
X152908602Y-78526452D01*
X152876871Y-78558182D01*
X152815551Y-78591666D01*
X152789192Y-78594500D01*
X151897112Y-78594500D01*
X151708848Y-78609317D01*
X151463889Y-78668126D01*
X151231140Y-78764533D01*
X151016346Y-78896160D01*
X151016343Y-78896161D01*
X150824776Y-79059776D01*
X150661161Y-79251343D01*
X150661160Y-79251346D01*
X150529533Y-79466140D01*
X150433126Y-79698889D01*
X150374317Y-79943848D01*
X150359500Y-80132112D01*
X150359500Y-82757887D01*
X150374317Y-82946151D01*
X150433126Y-83191110D01*
X150529533Y-83423859D01*
X150661160Y-83638653D01*
X150661161Y-83638656D01*
X150661164Y-83638659D01*
X150824776Y-83830224D01*
X150973066Y-83956875D01*
X151016343Y-83993838D01*
X151016346Y-83993839D01*
X151231140Y-84125466D01*
X151406935Y-84198282D01*
X151463889Y-84221873D01*
X151708852Y-84280683D01*
X151897118Y-84295500D01*
X151897126Y-84295500D01*
X154022874Y-84295500D01*
X154022882Y-84295500D01*
X154211148Y-84280683D01*
X154456111Y-84221873D01*
X154688859Y-84125466D01*
X154903659Y-83993836D01*
X155095224Y-83830224D01*
X155258836Y-83638659D01*
X155390466Y-83423859D01*
X155486873Y-83191111D01*
X155505426Y-83113832D01*
X155540217Y-83053240D01*
X155602243Y-83021076D01*
X155671812Y-83027552D01*
X155698910Y-83042479D01*
X155898286Y-83187408D01*
X155906791Y-83198443D01*
X155922321Y-83210394D01*
X156097902Y-83430565D01*
X156304435Y-83637098D01*
X156532794Y-83819208D01*
X156780107Y-83974605D01*
X157043263Y-84101335D01*
X157306456Y-84193429D01*
X157363230Y-84234150D01*
X157388978Y-84299102D01*
X157389500Y-84310470D01*
X157389500Y-90225500D01*
X157369815Y-90292539D01*
X157317011Y-90338294D01*
X157265500Y-90349500D01*
X150320808Y-90349500D01*
X150253769Y-90329815D01*
X150233127Y-90313181D01*
X142106819Y-82186873D01*
X142073334Y-82125550D01*
X142070500Y-82099192D01*
X142070500Y-81515928D01*
X142045502Y-81390261D01*
X142045501Y-81390260D01*
X142045501Y-81390256D01*
X141996465Y-81271873D01*
X141969786Y-81231945D01*
X141951394Y-81204418D01*
X141938490Y-81163197D01*
X141930520Y-81137742D01*
X141930500Y-81135532D01*
X141930500Y-64637486D01*
X153249500Y-64637486D01*
X153249500Y-64932513D01*
X153271876Y-65102466D01*
X153288007Y-65224993D01*
X153326410Y-65368316D01*
X153364361Y-65509951D01*
X153364364Y-65509961D01*
X153477254Y-65782500D01*
X153477258Y-65782510D01*
X153624761Y-66037993D01*
X153804352Y-66272040D01*
X153804358Y-66272047D01*
X154012952Y-66480641D01*
X154012959Y-66480647D01*
X154247006Y-66660238D01*
X154502489Y-66807741D01*
X154502490Y-66807741D01*
X154502493Y-66807743D01*
X154775048Y-66920639D01*
X155060007Y-66996993D01*
X155352494Y-67035500D01*
X155352501Y-67035500D01*
X155647499Y-67035500D01*
X155647506Y-67035500D01*
X155939993Y-66996993D01*
X156224952Y-66920639D01*
X156497507Y-66807743D01*
X156752994Y-66660238D01*
X156987042Y-66480646D01*
X157195646Y-66272042D01*
X157375238Y-66037994D01*
X157522743Y-65782507D01*
X157635639Y-65509952D01*
X157711993Y-65224993D01*
X157750500Y-64932506D01*
X157750500Y-64637494D01*
X157711993Y-64345007D01*
X157635639Y-64060048D01*
X157522743Y-63787493D01*
X157402314Y-63578904D01*
X157375238Y-63532006D01*
X157195647Y-63297959D01*
X157195641Y-63297952D01*
X156987047Y-63089358D01*
X156987040Y-63089352D01*
X156752993Y-62909761D01*
X156497510Y-62762258D01*
X156497500Y-62762254D01*
X156224961Y-62649364D01*
X156224954Y-62649362D01*
X156224952Y-62649361D01*
X155939993Y-62573007D01*
X155891113Y-62566571D01*
X155647513Y-62534500D01*
X155647506Y-62534500D01*
X155352494Y-62534500D01*
X155352486Y-62534500D01*
X155074085Y-62571153D01*
X155060007Y-62573007D01*
X154775048Y-62649361D01*
X154775038Y-62649364D01*
X154502499Y-62762254D01*
X154502489Y-62762258D01*
X154247006Y-62909761D01*
X154012959Y-63089352D01*
X154012952Y-63089358D01*
X153804358Y-63297952D01*
X153804352Y-63297959D01*
X153624761Y-63532006D01*
X153477258Y-63787489D01*
X153477254Y-63787499D01*
X153364364Y-64060038D01*
X153364361Y-64060048D01*
X153347644Y-64122439D01*
X153288008Y-64345004D01*
X153288006Y-64345015D01*
X153249500Y-64637486D01*
X141930500Y-64637486D01*
X141930500Y-59458597D01*
X164898349Y-59458597D01*
X172069423Y-59458597D01*
X172069423Y-57643059D01*
X164898349Y-57643059D01*
X164898349Y-59458597D01*
X141930500Y-59458597D01*
X141930500Y-59143579D01*
X141950185Y-59076540D01*
X142002989Y-59030785D01*
X142013527Y-59026544D01*
X142200079Y-58961267D01*
X142442997Y-58844284D01*
X142484027Y-58818503D01*
X142551264Y-58799502D01*
X142615973Y-58818503D01*
X142657003Y-58844284D01*
X142899921Y-58961267D01*
X143086452Y-59026537D01*
X143154397Y-59050312D01*
X143154405Y-59050315D01*
X143154408Y-59050315D01*
X143154409Y-59050316D01*
X143417268Y-59110312D01*
X143685187Y-59140499D01*
X143685188Y-59140500D01*
X143685191Y-59140500D01*
X143954812Y-59140500D01*
X143954812Y-59140499D01*
X144222732Y-59110312D01*
X144485591Y-59050316D01*
X144740079Y-58961267D01*
X144982997Y-58844284D01*
X145024027Y-58818503D01*
X145091264Y-58799502D01*
X145155973Y-58818503D01*
X145197003Y-58844284D01*
X145439921Y-58961267D01*
X145626452Y-59026537D01*
X145694397Y-59050312D01*
X145694405Y-59050315D01*
X145694408Y-59050315D01*
X145694409Y-59050316D01*
X145957268Y-59110312D01*
X146225187Y-59140499D01*
X146225188Y-59140500D01*
X146225191Y-59140500D01*
X146494812Y-59140500D01*
X146494812Y-59140499D01*
X146762732Y-59110312D01*
X147025591Y-59050316D01*
X147280079Y-58961267D01*
X147522997Y-58844284D01*
X147564027Y-58818503D01*
X147631264Y-58799502D01*
X147695973Y-58818503D01*
X147737003Y-58844284D01*
X147979921Y-58961267D01*
X148166452Y-59026537D01*
X148234397Y-59050312D01*
X148234405Y-59050315D01*
X148234408Y-59050315D01*
X148234409Y-59050316D01*
X148497268Y-59110312D01*
X148765187Y-59140499D01*
X148765188Y-59140500D01*
X148765191Y-59140500D01*
X149034812Y-59140500D01*
X149034812Y-59140499D01*
X149302732Y-59110312D01*
X149565591Y-59050316D01*
X149813337Y-58963625D01*
X149883112Y-58960063D01*
X149906594Y-58968713D01*
X149906640Y-58968602D01*
X149909430Y-58969758D01*
X149910590Y-58970185D01*
X149911130Y-58970459D01*
X149911141Y-58970466D01*
X150143889Y-59066873D01*
X150388852Y-59125683D01*
X150577118Y-59140500D01*
X150577126Y-59140500D01*
X152302874Y-59140500D01*
X152302882Y-59140500D01*
X152491148Y-59125683D01*
X152736111Y-59066873D01*
X152968859Y-58970466D01*
X153183659Y-58838836D01*
X153375224Y-58675224D01*
X153538836Y-58483659D01*
X153670466Y-58268859D01*
X153766873Y-58036111D01*
X153825683Y-57791148D01*
X153840500Y-57602882D01*
X153840500Y-55877118D01*
X153825683Y-55688852D01*
X153766873Y-55443889D01*
X153766678Y-55443419D01*
X153670466Y-55211140D01*
X153538839Y-54996346D01*
X153538838Y-54996343D01*
X153496921Y-54947265D01*
X153375224Y-54804776D01*
X153207466Y-54661497D01*
X153183656Y-54641161D01*
X153183653Y-54641160D01*
X152968859Y-54509533D01*
X152736110Y-54413126D01*
X152491151Y-54354317D01*
X152302887Y-54339500D01*
X152302882Y-54339500D01*
X150577118Y-54339500D01*
X150577112Y-54339500D01*
X150388848Y-54354317D01*
X150143889Y-54413126D01*
X149911126Y-54509540D01*
X149910565Y-54509826D01*
X149910329Y-54509870D01*
X149906641Y-54511398D01*
X149906319Y-54510622D01*
X149841894Y-54522710D01*
X149813337Y-54516373D01*
X149565592Y-54429684D01*
X149565594Y-54429684D01*
X149368446Y-54384687D01*
X149302732Y-54369688D01*
X149302728Y-54369687D01*
X149302719Y-54369686D01*
X149034813Y-54339500D01*
X149034809Y-54339500D01*
X148765191Y-54339500D01*
X148765186Y-54339500D01*
X148497280Y-54369686D01*
X148497268Y-54369688D01*
X148234405Y-54429684D01*
X148234397Y-54429687D01*
X147979917Y-54518734D01*
X147737001Y-54635716D01*
X147736999Y-54635717D01*
X147695971Y-54661497D01*
X147628734Y-54680497D01*
X147564029Y-54661497D01*
X147523000Y-54635717D01*
X147522998Y-54635716D01*
X147280082Y-54518734D01*
X147025602Y-54429687D01*
X147025594Y-54429684D01*
X146828446Y-54384687D01*
X146762732Y-54369688D01*
X146762728Y-54369687D01*
X146762719Y-54369686D01*
X146494813Y-54339500D01*
X146494809Y-54339500D01*
X146225191Y-54339500D01*
X146225186Y-54339500D01*
X145957280Y-54369686D01*
X145957268Y-54369688D01*
X145694405Y-54429684D01*
X145694397Y-54429687D01*
X145439917Y-54518734D01*
X145197001Y-54635716D01*
X145196999Y-54635717D01*
X145155971Y-54661497D01*
X145088734Y-54680497D01*
X145024029Y-54661497D01*
X144983000Y-54635717D01*
X144982998Y-54635716D01*
X144740082Y-54518734D01*
X144485602Y-54429687D01*
X144485594Y-54429684D01*
X144288446Y-54384687D01*
X144222732Y-54369688D01*
X144222728Y-54369687D01*
X144222719Y-54369686D01*
X143954813Y-54339500D01*
X143954809Y-54339500D01*
X143685191Y-54339500D01*
X143685186Y-54339500D01*
X143417280Y-54369686D01*
X143417268Y-54369688D01*
X143154405Y-54429684D01*
X143154397Y-54429687D01*
X142899917Y-54518734D01*
X142657001Y-54635716D01*
X142656999Y-54635717D01*
X142615971Y-54661497D01*
X142548734Y-54680497D01*
X142484029Y-54661497D01*
X142443000Y-54635717D01*
X142442998Y-54635716D01*
X142200082Y-54518734D01*
X141945602Y-54429687D01*
X141945594Y-54429684D01*
X141748446Y-54384687D01*
X141682732Y-54369688D01*
X141682728Y-54369687D01*
X141682719Y-54369686D01*
X141414813Y-54339500D01*
X141414809Y-54339500D01*
X141145191Y-54339500D01*
X141145186Y-54339500D01*
X140877280Y-54369686D01*
X140877268Y-54369688D01*
X140614405Y-54429684D01*
X140614397Y-54429687D01*
X140359917Y-54518734D01*
X140117005Y-54635714D01*
X139888712Y-54779161D01*
X139677915Y-54947265D01*
X139487265Y-55137915D01*
X139319159Y-55348714D01*
X139259650Y-55443420D01*
X139207315Y-55489711D01*
X139138261Y-55500358D01*
X139116340Y-55495378D01*
X139044419Y-55472010D01*
X139044420Y-55472010D01*
X138990000Y-55463390D01*
X138990000Y-55995279D01*
X138983042Y-56036233D01*
X138969684Y-56074406D01*
X138924623Y-56271832D01*
X138805826Y-56240000D01*
X138674174Y-56240000D01*
X138547007Y-56274075D01*
X138490000Y-56306988D01*
X138490000Y-55463390D01*
X138435586Y-55472009D01*
X138240970Y-55535244D01*
X138058650Y-55628140D01*
X137893105Y-55748417D01*
X137893104Y-55748417D01*
X137748417Y-55893104D01*
X137748417Y-55893105D01*
X137628140Y-56058650D01*
X137580485Y-56152179D01*
X137532510Y-56202975D01*
X137464689Y-56219770D01*
X137398554Y-56197232D01*
X137359515Y-56152179D01*
X137311859Y-56058650D01*
X137191582Y-55893105D01*
X137191582Y-55893104D01*
X137046895Y-55748417D01*
X136881349Y-55628140D01*
X136699029Y-55535244D01*
X136504413Y-55472009D01*
X136450000Y-55463390D01*
X136450000Y-56306988D01*
X136392993Y-56274075D01*
X136265826Y-56240000D01*
X136134174Y-56240000D01*
X136015376Y-56271832D01*
X135970316Y-56074409D01*
X135956958Y-56036233D01*
X135950000Y-55995279D01*
X135950000Y-55463390D01*
X135895583Y-55472009D01*
X135823657Y-55495379D01*
X135753816Y-55497373D01*
X135693984Y-55461291D01*
X135680347Y-55443419D01*
X135620838Y-55348711D01*
X135452734Y-55137915D01*
X135262085Y-54947266D01*
X135051289Y-54779162D01*
X134864027Y-54661497D01*
X134822994Y-54635714D01*
X134580082Y-54518734D01*
X134325602Y-54429687D01*
X134325594Y-54429684D01*
X134128446Y-54384687D01*
X134062732Y-54369688D01*
X134062728Y-54369687D01*
X134062719Y-54369686D01*
X133794813Y-54339500D01*
X133794809Y-54339500D01*
X133525191Y-54339500D01*
X133525186Y-54339500D01*
X133257280Y-54369686D01*
X133257268Y-54369688D01*
X132994405Y-54429684D01*
X132994397Y-54429687D01*
X132739917Y-54518734D01*
X132497005Y-54635714D01*
X132268712Y-54779161D01*
X132057915Y-54947265D01*
X131867265Y-55137915D01*
X131699161Y-55348712D01*
X131555714Y-55577005D01*
X131438734Y-55819917D01*
X131349687Y-56074397D01*
X131349684Y-56074405D01*
X131289688Y-56337268D01*
X131289686Y-56337280D01*
X131259500Y-56605186D01*
X131259500Y-56874813D01*
X131289686Y-57142719D01*
X131289688Y-57142731D01*
X131349684Y-57405594D01*
X131349687Y-57405602D01*
X131438734Y-57660082D01*
X131555714Y-57902994D01*
X131555716Y-57902997D01*
X131699162Y-58131289D01*
X131867266Y-58342085D01*
X132057915Y-58532734D01*
X132268711Y-58700838D01*
X132497003Y-58844284D01*
X132739921Y-58961267D01*
X132926452Y-59026537D01*
X132994397Y-59050312D01*
X132994405Y-59050315D01*
X132994408Y-59050315D01*
X132994409Y-59050316D01*
X133257268Y-59110312D01*
X133525187Y-59140499D01*
X133525188Y-59140500D01*
X133525191Y-59140500D01*
X133794812Y-59140500D01*
X133794812Y-59140499D01*
X134062732Y-59110312D01*
X134325591Y-59050316D01*
X134580079Y-58961267D01*
X134822997Y-58844284D01*
X135051289Y-58700838D01*
X135262085Y-58532734D01*
X135452734Y-58342085D01*
X135620838Y-58131289D01*
X135680348Y-58036578D01*
X135732681Y-57990288D01*
X135801734Y-57979639D01*
X135823660Y-57984620D01*
X135895578Y-58007988D01*
X135950000Y-58016607D01*
X135950000Y-57484717D01*
X135956959Y-57443762D01*
X135970316Y-57405591D01*
X136015376Y-57208167D01*
X136134174Y-57240000D01*
X136265826Y-57240000D01*
X136392993Y-57205925D01*
X136450000Y-57173012D01*
X136450000Y-58016606D01*
X136504421Y-58007988D01*
X136699031Y-57944754D01*
X136881349Y-57851859D01*
X137046894Y-57731582D01*
X137046895Y-57731582D01*
X137191582Y-57586895D01*
X137191582Y-57586894D01*
X137311859Y-57421349D01*
X137359515Y-57327820D01*
X137407489Y-57277024D01*
X137475310Y-57260229D01*
X137541445Y-57282766D01*
X137580485Y-57327820D01*
X137628140Y-57421349D01*
X137748417Y-57586894D01*
X137748417Y-57586895D01*
X137893104Y-57731582D01*
X138058650Y-57851859D01*
X138240968Y-57944754D01*
X138435578Y-58007988D01*
X138490000Y-58016607D01*
X138490000Y-57173012D01*
X138547007Y-57205925D01*
X138674174Y-57240000D01*
X138805826Y-57240000D01*
X138924622Y-57208167D01*
X138969681Y-57405579D01*
X138969684Y-57405592D01*
X138983041Y-57443762D01*
X138990000Y-57484717D01*
X138990000Y-58016606D01*
X139044425Y-58007987D01*
X139116337Y-57984621D01*
X139186178Y-57982624D01*
X139246011Y-58018704D01*
X139259650Y-58036579D01*
X139319154Y-58131279D01*
X139319158Y-58131284D01*
X139319162Y-58131289D01*
X139487266Y-58342085D01*
X139677915Y-58532734D01*
X139888711Y-58700838D01*
X140117003Y-58844284D01*
X140359921Y-58961267D01*
X140546457Y-59026538D01*
X140603231Y-59067259D01*
X140628978Y-59132212D01*
X140629500Y-59143579D01*
X140629500Y-81504071D01*
X140652821Y-81621308D01*
X140646594Y-81690899D01*
X140603732Y-81746077D01*
X140537842Y-81769322D01*
X140531204Y-81769500D01*
X128903579Y-81769500D01*
X128836540Y-81749815D01*
X128790785Y-81697011D01*
X128786544Y-81686472D01*
X128721267Y-81499921D01*
X128604284Y-81257003D01*
X128460838Y-81028711D01*
X128300227Y-80827311D01*
X128273819Y-80762626D01*
X128286576Y-80693931D01*
X128300225Y-80672691D01*
X128460838Y-80471289D01*
X128604284Y-80242997D01*
X128721267Y-80000079D01*
X128786538Y-79813542D01*
X128827259Y-79756769D01*
X128892212Y-79731022D01*
X128903579Y-79730500D01*
X128984071Y-79730500D01*
X129068615Y-79713682D01*
X129109744Y-79705501D01*
X129228127Y-79656465D01*
X129246679Y-79644069D01*
X129334669Y-79585277D01*
X132005277Y-76914669D01*
X132076465Y-76808127D01*
X132125501Y-76689744D01*
X132127539Y-76679500D01*
X132146271Y-76585332D01*
X132150500Y-76564071D01*
X132150500Y-59595928D01*
X132125502Y-59470261D01*
X132125501Y-59470260D01*
X132125501Y-59470256D01*
X132077646Y-59354724D01*
X132076466Y-59351874D01*
X132005277Y-59245331D01*
X132005275Y-59245329D01*
X132005273Y-59245326D01*
X132005272Y-59245325D01*
X130739560Y-57979614D01*
X130706075Y-57918291D01*
X130711059Y-57848599D01*
X130715514Y-57838145D01*
X130801267Y-57660079D01*
X130890316Y-57405591D01*
X130950312Y-57142732D01*
X130980500Y-56874809D01*
X130980500Y-56605191D01*
X130950312Y-56337268D01*
X130890316Y-56074409D01*
X130801267Y-55819921D01*
X130684284Y-55577003D01*
X130540838Y-55348711D01*
X130372734Y-55137915D01*
X130182085Y-54947266D01*
X129971289Y-54779162D01*
X129784027Y-54661497D01*
X129742994Y-54635714D01*
X129500082Y-54518734D01*
X129245602Y-54429687D01*
X129245594Y-54429684D01*
X129048446Y-54384687D01*
X128982732Y-54369688D01*
X128982728Y-54369687D01*
X128982719Y-54369686D01*
X128714813Y-54339500D01*
X128714809Y-54339500D01*
X128445191Y-54339500D01*
X128445186Y-54339500D01*
X128177280Y-54369686D01*
X128177268Y-54369688D01*
X127914405Y-54429684D01*
X127914397Y-54429687D01*
X127659917Y-54518734D01*
X127417001Y-54635716D01*
X127416999Y-54635717D01*
X127375971Y-54661497D01*
X127308734Y-54680497D01*
X127244029Y-54661497D01*
X127203000Y-54635717D01*
X127202998Y-54635716D01*
X126960082Y-54518734D01*
X126705602Y-54429687D01*
X126705594Y-54429684D01*
X126508446Y-54384687D01*
X126442732Y-54369688D01*
X126442728Y-54369687D01*
X126442719Y-54369686D01*
X126174813Y-54339500D01*
X126174809Y-54339500D01*
X125905191Y-54339500D01*
X125905186Y-54339500D01*
X125637280Y-54369686D01*
X125637268Y-54369688D01*
X125374405Y-54429684D01*
X125374397Y-54429687D01*
X125119917Y-54518734D01*
X124877001Y-54635716D01*
X124876999Y-54635717D01*
X124835971Y-54661497D01*
X124768734Y-54680497D01*
X124704029Y-54661497D01*
X124663000Y-54635717D01*
X124662998Y-54635716D01*
X124420082Y-54518734D01*
X124165602Y-54429687D01*
X124165594Y-54429684D01*
X123968446Y-54384687D01*
X123902732Y-54369688D01*
X123902728Y-54369687D01*
X123902719Y-54369686D01*
X123634813Y-54339500D01*
X123634809Y-54339500D01*
X123365191Y-54339500D01*
X123365186Y-54339500D01*
X123097280Y-54369686D01*
X123097268Y-54369688D01*
X122834405Y-54429684D01*
X122834397Y-54429687D01*
X122579917Y-54518734D01*
X122337001Y-54635716D01*
X122336999Y-54635717D01*
X122295971Y-54661497D01*
X122228734Y-54680497D01*
X122164029Y-54661497D01*
X122123000Y-54635717D01*
X122122998Y-54635716D01*
X121880082Y-54518734D01*
X121625602Y-54429687D01*
X121625594Y-54429684D01*
X121428446Y-54384687D01*
X121362732Y-54369688D01*
X121362728Y-54369687D01*
X121362719Y-54369686D01*
X121094813Y-54339500D01*
X121094809Y-54339500D01*
X120825191Y-54339500D01*
X120825186Y-54339500D01*
X120557280Y-54369686D01*
X120557268Y-54369688D01*
X120294405Y-54429684D01*
X120294397Y-54429687D01*
X120039917Y-54518734D01*
X119797001Y-54635716D01*
X119796999Y-54635717D01*
X119755971Y-54661497D01*
X119688734Y-54680497D01*
X119624029Y-54661497D01*
X119583000Y-54635717D01*
X119582998Y-54635716D01*
X119340082Y-54518734D01*
X119085602Y-54429687D01*
X119085594Y-54429684D01*
X118888446Y-54384687D01*
X118822732Y-54369688D01*
X118822728Y-54369687D01*
X118822719Y-54369686D01*
X118554813Y-54339500D01*
X118554809Y-54339500D01*
X118285191Y-54339500D01*
X118285186Y-54339500D01*
X118017280Y-54369686D01*
X118017268Y-54369688D01*
X117754405Y-54429684D01*
X117754397Y-54429687D01*
X117499917Y-54518734D01*
X117257001Y-54635716D01*
X117256999Y-54635717D01*
X117215971Y-54661497D01*
X117148734Y-54680497D01*
X117084029Y-54661497D01*
X117043000Y-54635717D01*
X117042998Y-54635716D01*
X116800082Y-54518734D01*
X116545602Y-54429687D01*
X116545594Y-54429684D01*
X116348446Y-54384687D01*
X116282732Y-54369688D01*
X116282728Y-54369687D01*
X116282719Y-54369686D01*
X116014813Y-54339500D01*
X116014809Y-54339500D01*
X115745191Y-54339500D01*
X115745186Y-54339500D01*
X115477280Y-54369686D01*
X115477268Y-54369688D01*
X115214405Y-54429684D01*
X115214397Y-54429687D01*
X114959917Y-54518734D01*
X114717005Y-54635714D01*
X114488712Y-54779161D01*
X114277915Y-54947265D01*
X114087265Y-55137915D01*
X113919161Y-55348712D01*
X113775714Y-55577005D01*
X113658734Y-55819917D01*
X113569687Y-56074397D01*
X113569684Y-56074405D01*
X113509688Y-56337268D01*
X113509686Y-56337280D01*
X113479500Y-56605186D01*
X113479500Y-56874813D01*
X113509686Y-57142719D01*
X113509688Y-57142731D01*
X113569684Y-57405594D01*
X113569687Y-57405602D01*
X113658734Y-57660082D01*
X113775714Y-57902994D01*
X113775716Y-57902997D01*
X113919162Y-58131289D01*
X114087266Y-58342085D01*
X114277915Y-58532734D01*
X114488711Y-58700838D01*
X114717003Y-58844284D01*
X114959921Y-58961267D01*
X115146452Y-59026537D01*
X115214397Y-59050312D01*
X115214405Y-59050315D01*
X115214408Y-59050315D01*
X115214409Y-59050316D01*
X115477268Y-59110312D01*
X115745187Y-59140499D01*
X115745188Y-59140500D01*
X115745191Y-59140500D01*
X116014812Y-59140500D01*
X116014812Y-59140499D01*
X116282732Y-59110312D01*
X116545591Y-59050316D01*
X116800079Y-58961267D01*
X116978133Y-58875520D01*
X117047072Y-58864169D01*
X117111207Y-58891891D01*
X117119614Y-58899560D01*
X118313181Y-60093127D01*
X118346666Y-60154450D01*
X118349500Y-60180808D01*
X118349500Y-67679191D01*
X118329815Y-67746230D01*
X118313181Y-67766872D01*
X118111869Y-67968184D01*
X118050546Y-68001669D01*
X117980854Y-67996685D01*
X117924921Y-67954813D01*
X117900504Y-67889349D01*
X117903296Y-67852914D01*
X117919683Y-67781121D01*
X117950500Y-67507617D01*
X117950500Y-67232383D01*
X117919683Y-66958879D01*
X117858438Y-66690546D01*
X117767534Y-66430757D01*
X117648114Y-66182779D01*
X117501681Y-65949732D01*
X117330075Y-65734545D01*
X117135455Y-65539925D01*
X117097881Y-65509961D01*
X116920264Y-65368316D01*
X116856171Y-65328043D01*
X116809881Y-65275708D01*
X116799233Y-65206655D01*
X116804214Y-65184730D01*
X116816757Y-65146126D01*
X116816758Y-65146122D01*
X116850000Y-64936246D01*
X116850000Y-64723753D01*
X116816757Y-64513872D01*
X116816757Y-64513869D01*
X116751095Y-64311782D01*
X116654624Y-64122449D01*
X116615270Y-64068282D01*
X115982962Y-64700589D01*
X115965925Y-64637007D01*
X115900099Y-64522993D01*
X115807007Y-64429901D01*
X115692993Y-64364075D01*
X115629409Y-64347037D01*
X116261716Y-63714728D01*
X116207550Y-63675375D01*
X116018217Y-63578904D01*
X115816129Y-63513242D01*
X115606246Y-63480000D01*
X115393754Y-63480000D01*
X115183872Y-63513242D01*
X115183869Y-63513242D01*
X114981782Y-63578904D01*
X114792439Y-63675380D01*
X114738282Y-63714727D01*
X114738282Y-63714728D01*
X115370591Y-64347037D01*
X115307007Y-64364075D01*
X115192993Y-64429901D01*
X115099901Y-64522993D01*
X115034075Y-64637007D01*
X115017037Y-64700591D01*
X114384728Y-64068282D01*
X114384727Y-64068282D01*
X114345380Y-64122439D01*
X114248904Y-64311782D01*
X114183242Y-64513869D01*
X114183242Y-64513872D01*
X114150000Y-64723753D01*
X114150000Y-64936246D01*
X114183241Y-65146125D01*
X114195786Y-65184735D01*
X114197780Y-65254576D01*
X114161698Y-65314408D01*
X114143827Y-65328044D01*
X114079735Y-65368316D01*
X113864545Y-65539924D01*
X113669924Y-65734545D01*
X113498318Y-65949733D01*
X113351884Y-66182781D01*
X113232467Y-66430753D01*
X113141565Y-66690534D01*
X113141561Y-66690546D01*
X113080317Y-66958875D01*
X113080315Y-66958891D01*
X113049500Y-67232378D01*
X113049500Y-67479191D01*
X113029815Y-67546230D01*
X113013181Y-67566872D01*
X112795724Y-67784329D01*
X112724534Y-67890874D01*
X112675499Y-68009255D01*
X112675497Y-68009261D01*
X112650500Y-68134928D01*
X112650500Y-71365070D01*
X112662130Y-71423534D01*
X112662130Y-71423536D01*
X112675497Y-71490736D01*
X112675499Y-71490744D01*
X112724534Y-71609125D01*
X112795726Y-71715673D01*
X113585324Y-72505271D01*
X113585331Y-72505277D01*
X113691871Y-72576464D01*
X113691870Y-72576464D01*
X113726544Y-72590826D01*
X113810256Y-72625501D01*
X113810260Y-72625501D01*
X113810261Y-72625502D01*
X113935928Y-72650500D01*
X113935931Y-72650500D01*
X119645500Y-72650500D01*
X119712539Y-72670185D01*
X119758294Y-72722989D01*
X119769500Y-72774500D01*
X119769500Y-74259191D01*
X119749815Y-74326230D01*
X119733181Y-74346872D01*
X117959940Y-76120112D01*
X117898617Y-76153597D01*
X117828925Y-76148613D01*
X117772992Y-76106741D01*
X117760539Y-76086232D01*
X117648117Y-75852784D01*
X117639012Y-75838294D01*
X117501681Y-75619732D01*
X117330075Y-75404545D01*
X117135455Y-75209925D01*
X116920268Y-75038319D01*
X116920266Y-75038318D01*
X116920264Y-75038316D01*
X116856171Y-74998043D01*
X116809881Y-74945708D01*
X116799233Y-74876655D01*
X116804214Y-74854730D01*
X116816757Y-74816126D01*
X116816758Y-74816122D01*
X116850000Y-74606246D01*
X116850000Y-74393753D01*
X116816757Y-74183872D01*
X116816757Y-74183869D01*
X116751095Y-73981782D01*
X116654624Y-73792449D01*
X116615270Y-73738282D01*
X115982962Y-74370589D01*
X115965925Y-74307007D01*
X115900099Y-74192993D01*
X115807007Y-74099901D01*
X115692993Y-74034075D01*
X115629409Y-74017037D01*
X116261716Y-73384728D01*
X116207550Y-73345375D01*
X116018217Y-73248904D01*
X115816129Y-73183242D01*
X115606246Y-73150000D01*
X115393754Y-73150000D01*
X115183872Y-73183242D01*
X115183869Y-73183242D01*
X114981782Y-73248904D01*
X114792439Y-73345380D01*
X114738282Y-73384727D01*
X114738282Y-73384728D01*
X115370591Y-74017037D01*
X115307007Y-74034075D01*
X115192993Y-74099901D01*
X115099901Y-74192993D01*
X115034075Y-74307007D01*
X115017037Y-74370591D01*
X114384728Y-73738282D01*
X114384727Y-73738282D01*
X114345380Y-73792439D01*
X114248904Y-73981782D01*
X114183242Y-74183869D01*
X114183242Y-74183872D01*
X114150000Y-74393753D01*
X114150000Y-74606246D01*
X114183241Y-74816125D01*
X114195786Y-74854735D01*
X114197780Y-74924576D01*
X114161698Y-74984408D01*
X114143827Y-74998044D01*
X114079735Y-75038316D01*
X113864545Y-75209924D01*
X113669924Y-75404545D01*
X113498318Y-75619733D01*
X113351884Y-75852781D01*
X113232467Y-76100753D01*
X113141565Y-76360534D01*
X113141562Y-76360543D01*
X113126276Y-76427516D01*
X113092167Y-76488494D01*
X113086280Y-76493775D01*
X112994722Y-76585332D01*
X112923538Y-76691866D01*
X112923533Y-76691875D01*
X112874499Y-76810255D01*
X112874497Y-76810261D01*
X112849500Y-76935928D01*
X112849500Y-81146071D01*
X112870224Y-81250253D01*
X112870224Y-81250254D01*
X112874497Y-81271737D01*
X112874498Y-81271741D01*
X112874499Y-81271744D01*
X112923535Y-81390127D01*
X112976274Y-81469057D01*
X112994726Y-81496673D01*
X114423326Y-82925273D01*
X114423329Y-82925275D01*
X114423331Y-82925277D01*
X114529873Y-82996465D01*
X114648256Y-83045501D01*
X114648260Y-83045501D01*
X114648261Y-83045502D01*
X114773928Y-83070500D01*
X114773931Y-83070500D01*
X118725500Y-83070500D01*
X118792539Y-83090185D01*
X118838294Y-83142989D01*
X118849500Y-83194500D01*
X118849500Y-86179192D01*
X118829815Y-86246231D01*
X118813181Y-86266873D01*
X118266873Y-86813181D01*
X118239945Y-86827884D01*
X118214127Y-86844477D01*
X118207926Y-86845368D01*
X118205550Y-86846666D01*
X118179192Y-86849500D01*
X117956552Y-86849500D01*
X117889513Y-86829815D01*
X117843758Y-86777011D01*
X117839511Y-86766455D01*
X117812666Y-86689736D01*
X117767534Y-86560757D01*
X117648114Y-86312779D01*
X117501681Y-86079732D01*
X117330075Y-85864545D01*
X117135455Y-85669925D01*
X116920268Y-85498319D01*
X116920266Y-85498318D01*
X116920264Y-85498316D01*
X116856171Y-85458043D01*
X116809881Y-85405708D01*
X116799233Y-85336655D01*
X116804214Y-85314730D01*
X116816757Y-85276126D01*
X116816758Y-85276122D01*
X116850000Y-85066246D01*
X116850000Y-84853753D01*
X116816757Y-84643872D01*
X116816757Y-84643869D01*
X116751095Y-84441782D01*
X116654624Y-84252449D01*
X116615270Y-84198282D01*
X115982962Y-84830589D01*
X115965925Y-84767007D01*
X115900099Y-84652993D01*
X115807007Y-84559901D01*
X115692993Y-84494075D01*
X115629409Y-84477037D01*
X116261716Y-83844728D01*
X116207550Y-83805375D01*
X116018217Y-83708904D01*
X115816129Y-83643242D01*
X115606246Y-83610000D01*
X115393754Y-83610000D01*
X115183872Y-83643242D01*
X115183869Y-83643242D01*
X114981782Y-83708904D01*
X114792439Y-83805380D01*
X114738282Y-83844727D01*
X114738282Y-83844728D01*
X115370591Y-84477037D01*
X115307007Y-84494075D01*
X115192993Y-84559901D01*
X115099901Y-84652993D01*
X115034075Y-84767007D01*
X115017037Y-84830591D01*
X114384728Y-84198282D01*
X114384727Y-84198282D01*
X114345380Y-84252439D01*
X114248904Y-84441782D01*
X114183242Y-84643869D01*
X114183242Y-84643872D01*
X114150000Y-84853753D01*
X114150000Y-85066246D01*
X114183241Y-85276125D01*
X114195786Y-85314735D01*
X114197780Y-85384576D01*
X114161698Y-85444408D01*
X114143827Y-85458044D01*
X114079735Y-85498316D01*
X113864545Y-85669924D01*
X113669924Y-85864545D01*
X113498318Y-86079733D01*
X113351884Y-86312781D01*
X113232467Y-86560753D01*
X113141565Y-86820534D01*
X113141561Y-86820546D01*
X113080317Y-87088875D01*
X113080315Y-87088891D01*
X113049500Y-87362378D01*
X113049500Y-87637621D01*
X113080315Y-87911108D01*
X113080317Y-87911124D01*
X113141561Y-88179453D01*
X113141565Y-88179465D01*
X113215064Y-88389511D01*
X113218626Y-88459290D01*
X113212584Y-88477919D01*
X113123126Y-88693889D01*
X113064317Y-88938848D01*
X113049500Y-89127112D01*
X113049500Y-90952887D01*
X113064317Y-91141151D01*
X113123126Y-91386110D01*
X113219533Y-91618859D01*
X113351160Y-91833653D01*
X113351161Y-91833656D01*
X113371108Y-91857011D01*
X113514776Y-92025224D01*
X113663066Y-92151875D01*
X113706343Y-92188838D01*
X113706346Y-92188839D01*
X113921140Y-92320466D01*
X114153889Y-92416873D01*
X114398852Y-92475683D01*
X114587118Y-92490500D01*
X114587126Y-92490500D01*
X116412874Y-92490500D01*
X116412882Y-92490500D01*
X116601148Y-92475683D01*
X116846111Y-92416873D01*
X117078859Y-92320466D01*
X117293659Y-92188836D01*
X117485224Y-92025224D01*
X117648836Y-91833659D01*
X117780466Y-91618859D01*
X117876873Y-91386111D01*
X117935683Y-91141148D01*
X117950500Y-90952882D01*
X117950500Y-90774500D01*
X117970185Y-90707461D01*
X118022989Y-90661706D01*
X118074500Y-90650500D01*
X119179192Y-90650500D01*
X119246231Y-90670185D01*
X119266873Y-90686819D01*
X121665325Y-93085272D01*
X121665326Y-93085273D01*
X121665329Y-93085275D01*
X121665331Y-93085277D01*
X121771873Y-93156465D01*
X121890256Y-93205501D01*
X121890260Y-93205501D01*
X121890261Y-93205502D01*
X122015928Y-93230500D01*
X122015931Y-93230500D01*
X124096421Y-93230500D01*
X124163460Y-93250185D01*
X124209215Y-93302989D01*
X124213455Y-93313527D01*
X124278733Y-93500079D01*
X124278737Y-93500087D01*
X124278738Y-93500090D01*
X124395714Y-93742994D01*
X124395716Y-93742997D01*
X124539162Y-93971289D01*
X124707266Y-94182085D01*
X124897915Y-94372734D01*
X125108711Y-94540838D01*
X125337003Y-94684284D01*
X125579921Y-94801267D01*
X125771049Y-94868145D01*
X125834397Y-94890312D01*
X125834405Y-94890315D01*
X125834408Y-94890315D01*
X125834409Y-94890316D01*
X126097268Y-94950312D01*
X126365187Y-94980499D01*
X126365188Y-94980500D01*
X126365191Y-94980500D01*
X126634812Y-94980500D01*
X126634812Y-94980499D01*
X126902732Y-94950312D01*
X127165591Y-94890316D01*
X127420079Y-94801267D01*
X127662997Y-94684284D01*
X127891289Y-94540838D01*
X128102085Y-94372734D01*
X128292734Y-94182085D01*
X128460838Y-93971289D01*
X128604284Y-93742997D01*
X128721267Y-93500079D01*
X128786538Y-93313542D01*
X128827259Y-93256769D01*
X128892212Y-93231022D01*
X128903579Y-93230500D01*
X148259192Y-93230500D01*
X148326231Y-93250185D01*
X148346873Y-93266819D01*
X157353181Y-102273127D01*
X157367884Y-102300054D01*
X157384477Y-102325873D01*
X157385368Y-102332073D01*
X157386666Y-102334450D01*
X157389500Y-102360808D01*
X157389500Y-102596420D01*
X157369815Y-102663459D01*
X157317011Y-102709214D01*
X157306455Y-102713461D01*
X157119917Y-102778734D01*
X156877001Y-102895716D01*
X156876999Y-102895717D01*
X156835971Y-102921497D01*
X156768734Y-102940497D01*
X156704029Y-102921497D01*
X156663000Y-102895717D01*
X156662998Y-102895716D01*
X156420082Y-102778734D01*
X156165602Y-102689687D01*
X156165594Y-102689684D01*
X155968446Y-102644687D01*
X155902732Y-102629688D01*
X155902728Y-102629687D01*
X155902719Y-102629686D01*
X155634813Y-102599500D01*
X155634809Y-102599500D01*
X155365191Y-102599500D01*
X155365186Y-102599500D01*
X155097280Y-102629686D01*
X155097268Y-102629688D01*
X154834405Y-102689684D01*
X154834397Y-102689687D01*
X154579917Y-102778734D01*
X154337005Y-102895714D01*
X154108712Y-103039161D01*
X153897915Y-103207265D01*
X153707265Y-103397915D01*
X153539159Y-103608714D01*
X153479650Y-103703420D01*
X153427315Y-103749711D01*
X153358261Y-103760358D01*
X153336340Y-103755378D01*
X153264419Y-103732010D01*
X153264420Y-103732010D01*
X153210000Y-103723390D01*
X153210000Y-104255279D01*
X153203042Y-104296233D01*
X153189684Y-104334406D01*
X153144623Y-104531832D01*
X153025826Y-104500000D01*
X152894174Y-104500000D01*
X152775376Y-104531832D01*
X152730316Y-104334409D01*
X152716958Y-104296233D01*
X152710000Y-104255279D01*
X152710000Y-103723390D01*
X152655583Y-103732009D01*
X152583657Y-103755379D01*
X152513816Y-103757373D01*
X152453984Y-103721291D01*
X152440347Y-103703419D01*
X152380838Y-103608711D01*
X152212734Y-103397915D01*
X152022085Y-103207266D01*
X151811289Y-103039162D01*
X151582997Y-102895716D01*
X151582994Y-102895714D01*
X151340082Y-102778734D01*
X151085602Y-102689687D01*
X151085594Y-102689684D01*
X150888446Y-102644687D01*
X150822732Y-102629688D01*
X150822728Y-102629687D01*
X150822719Y-102629686D01*
X150554813Y-102599500D01*
X150554809Y-102599500D01*
X150285191Y-102599500D01*
X150285186Y-102599500D01*
X150017280Y-102629686D01*
X150017268Y-102629688D01*
X149754405Y-102689684D01*
X149754397Y-102689687D01*
X149499917Y-102778734D01*
X149257001Y-102895716D01*
X149256999Y-102895717D01*
X149215971Y-102921497D01*
X149148734Y-102940497D01*
X149084029Y-102921497D01*
X149043000Y-102895717D01*
X149042998Y-102895716D01*
X148800082Y-102778734D01*
X148545602Y-102689687D01*
X148545594Y-102689684D01*
X148348446Y-102644687D01*
X148282732Y-102629688D01*
X148282728Y-102629687D01*
X148282719Y-102629686D01*
X148014813Y-102599500D01*
X148014809Y-102599500D01*
X147745191Y-102599500D01*
X147745186Y-102599500D01*
X147477280Y-102629686D01*
X147477268Y-102629688D01*
X147214405Y-102689684D01*
X147214397Y-102689687D01*
X146959917Y-102778734D01*
X146717001Y-102895716D01*
X146716999Y-102895717D01*
X146675971Y-102921497D01*
X146608734Y-102940497D01*
X146544029Y-102921497D01*
X146503000Y-102895717D01*
X146502998Y-102895716D01*
X146260082Y-102778734D01*
X146005602Y-102689687D01*
X146005594Y-102689684D01*
X145808446Y-102644687D01*
X145742732Y-102629688D01*
X145742728Y-102629687D01*
X145742719Y-102629686D01*
X145474813Y-102599500D01*
X145474809Y-102599500D01*
X145205191Y-102599500D01*
X145205186Y-102599500D01*
X144937280Y-102629686D01*
X144937268Y-102629688D01*
X144674405Y-102689684D01*
X144674397Y-102689687D01*
X144419917Y-102778734D01*
X144177001Y-102895716D01*
X144176999Y-102895717D01*
X144135971Y-102921497D01*
X144068734Y-102940497D01*
X144004029Y-102921497D01*
X143963000Y-102895717D01*
X143962998Y-102895716D01*
X143720082Y-102778734D01*
X143465602Y-102689687D01*
X143465594Y-102689684D01*
X143268446Y-102644687D01*
X143202732Y-102629688D01*
X143202728Y-102629687D01*
X143202719Y-102629686D01*
X142934813Y-102599500D01*
X142934809Y-102599500D01*
X142665191Y-102599500D01*
X142665186Y-102599500D01*
X142397280Y-102629686D01*
X142397268Y-102629688D01*
X142134405Y-102689684D01*
X142134397Y-102689687D01*
X141879917Y-102778734D01*
X141637001Y-102895716D01*
X141636999Y-102895717D01*
X141595971Y-102921497D01*
X141528734Y-102940497D01*
X141464029Y-102921497D01*
X141423000Y-102895717D01*
X141422998Y-102895716D01*
X141180082Y-102778734D01*
X140925602Y-102689687D01*
X140925594Y-102689684D01*
X140728446Y-102644687D01*
X140662732Y-102629688D01*
X140662728Y-102629687D01*
X140662719Y-102629686D01*
X140394813Y-102599500D01*
X140394809Y-102599500D01*
X140125191Y-102599500D01*
X140125186Y-102599500D01*
X139857280Y-102629686D01*
X139857268Y-102629688D01*
X139594405Y-102689684D01*
X139594397Y-102689687D01*
X139339917Y-102778734D01*
X139097001Y-102895716D01*
X139096999Y-102895717D01*
X139055971Y-102921497D01*
X138988734Y-102940497D01*
X138924029Y-102921497D01*
X138883000Y-102895717D01*
X138882998Y-102895716D01*
X138640082Y-102778734D01*
X138385602Y-102689687D01*
X138385594Y-102689684D01*
X138188446Y-102644687D01*
X138122732Y-102629688D01*
X138122728Y-102629687D01*
X138122719Y-102629686D01*
X137854813Y-102599500D01*
X137854809Y-102599500D01*
X137585191Y-102599500D01*
X137585186Y-102599500D01*
X137317280Y-102629686D01*
X137317268Y-102629688D01*
X137054405Y-102689684D01*
X137054397Y-102689687D01*
X136799917Y-102778734D01*
X136557005Y-102895714D01*
X136328712Y-103039161D01*
X136117915Y-103207265D01*
X135927265Y-103397915D01*
X135786947Y-103573869D01*
X135729759Y-103614009D01*
X135659947Y-103616859D01*
X135599677Y-103581513D01*
X135593053Y-103573869D01*
X135452734Y-103397915D01*
X135262084Y-103207265D01*
X135208549Y-103164573D01*
X135051289Y-103039162D01*
X134822997Y-102895716D01*
X134822994Y-102895714D01*
X134580082Y-102778734D01*
X134325602Y-102689687D01*
X134325594Y-102689684D01*
X134128446Y-102644687D01*
X134062732Y-102629688D01*
X134062728Y-102629687D01*
X134062719Y-102629686D01*
X133794813Y-102599500D01*
X133794809Y-102599500D01*
X133525191Y-102599500D01*
X133525186Y-102599500D01*
X133257280Y-102629686D01*
X133257268Y-102629688D01*
X132994405Y-102689684D01*
X132994397Y-102689687D01*
X132739917Y-102778734D01*
X132497001Y-102895716D01*
X132496999Y-102895717D01*
X132455971Y-102921497D01*
X132388734Y-102940497D01*
X132324029Y-102921497D01*
X132283000Y-102895717D01*
X132282998Y-102895716D01*
X132040082Y-102778734D01*
X131785602Y-102689687D01*
X131785594Y-102689684D01*
X131588446Y-102644687D01*
X131522732Y-102629688D01*
X131522728Y-102629687D01*
X131522719Y-102629686D01*
X131254813Y-102599500D01*
X131254809Y-102599500D01*
X130985191Y-102599500D01*
X130985186Y-102599500D01*
X130717280Y-102629686D01*
X130717268Y-102629688D01*
X130454405Y-102689684D01*
X130454397Y-102689687D01*
X130199917Y-102778734D01*
X129957001Y-102895716D01*
X129956999Y-102895717D01*
X129915971Y-102921497D01*
X129848734Y-102940497D01*
X129784029Y-102921497D01*
X129743000Y-102895717D01*
X129742998Y-102895716D01*
X129500082Y-102778734D01*
X129245602Y-102689687D01*
X129245594Y-102689684D01*
X129048446Y-102644687D01*
X128982732Y-102629688D01*
X128982728Y-102629687D01*
X128982719Y-102629686D01*
X128714813Y-102599500D01*
X128714809Y-102599500D01*
X128445191Y-102599500D01*
X128445186Y-102599500D01*
X128177280Y-102629686D01*
X128177268Y-102629688D01*
X127914405Y-102689684D01*
X127914397Y-102689687D01*
X127659917Y-102778734D01*
X127417001Y-102895716D01*
X127416999Y-102895717D01*
X127375971Y-102921497D01*
X127308734Y-102940497D01*
X127244029Y-102921497D01*
X127203000Y-102895717D01*
X127202998Y-102895716D01*
X126960082Y-102778734D01*
X126705602Y-102689687D01*
X126705594Y-102689684D01*
X126508446Y-102644687D01*
X126442732Y-102629688D01*
X126442728Y-102629687D01*
X126442719Y-102629686D01*
X126174813Y-102599500D01*
X126174809Y-102599500D01*
X125905191Y-102599500D01*
X125905186Y-102599500D01*
X125637280Y-102629686D01*
X125637268Y-102629688D01*
X125374405Y-102689684D01*
X125374397Y-102689687D01*
X125119917Y-102778734D01*
X124877001Y-102895716D01*
X124876999Y-102895717D01*
X124835971Y-102921497D01*
X124768734Y-102940497D01*
X124704029Y-102921497D01*
X124663000Y-102895717D01*
X124662998Y-102895716D01*
X124420082Y-102778734D01*
X124165602Y-102689687D01*
X124165594Y-102689684D01*
X123968446Y-102644687D01*
X123902732Y-102629688D01*
X123902728Y-102629687D01*
X123902719Y-102629686D01*
X123634813Y-102599500D01*
X123634809Y-102599500D01*
X123365191Y-102599500D01*
X123365186Y-102599500D01*
X123097280Y-102629686D01*
X123097268Y-102629688D01*
X122834405Y-102689684D01*
X122834397Y-102689687D01*
X122579917Y-102778734D01*
X122337001Y-102895716D01*
X122336999Y-102895717D01*
X122295971Y-102921497D01*
X122228734Y-102940497D01*
X122164029Y-102921497D01*
X122123000Y-102895717D01*
X122122998Y-102895716D01*
X121880082Y-102778734D01*
X121625602Y-102689687D01*
X121625594Y-102689684D01*
X121428446Y-102644687D01*
X121362732Y-102629688D01*
X121362728Y-102629687D01*
X121362719Y-102629686D01*
X121094813Y-102599500D01*
X121094809Y-102599500D01*
X120825191Y-102599500D01*
X120825186Y-102599500D01*
X120557280Y-102629686D01*
X120557268Y-102629688D01*
X120294405Y-102689684D01*
X120294397Y-102689687D01*
X120039917Y-102778734D01*
X119797001Y-102895716D01*
X119796999Y-102895717D01*
X119755971Y-102921497D01*
X119688734Y-102940497D01*
X119624029Y-102921497D01*
X119583000Y-102895717D01*
X119582998Y-102895716D01*
X119340082Y-102778734D01*
X119085602Y-102689687D01*
X119085594Y-102689684D01*
X118888446Y-102644687D01*
X118822732Y-102629688D01*
X118822728Y-102629687D01*
X118822719Y-102629686D01*
X118554813Y-102599500D01*
X118554809Y-102599500D01*
X118285191Y-102599500D01*
X118285186Y-102599500D01*
X118017280Y-102629686D01*
X118017268Y-102629688D01*
X117754405Y-102689684D01*
X117754397Y-102689687D01*
X117499917Y-102778734D01*
X117257001Y-102895716D01*
X117256999Y-102895717D01*
X117215971Y-102921497D01*
X117148734Y-102940497D01*
X117084029Y-102921497D01*
X117043000Y-102895717D01*
X117042998Y-102895716D01*
X116800082Y-102778734D01*
X116545602Y-102689687D01*
X116545594Y-102689684D01*
X116348446Y-102644687D01*
X116282732Y-102629688D01*
X116282728Y-102629687D01*
X116282719Y-102629686D01*
X116014813Y-102599500D01*
X116014809Y-102599500D01*
X115745191Y-102599500D01*
X115745186Y-102599500D01*
X115477280Y-102629686D01*
X115477268Y-102629688D01*
X115214405Y-102689684D01*
X115214397Y-102689687D01*
X114959917Y-102778734D01*
X114717005Y-102895714D01*
X114488712Y-103039161D01*
X114277915Y-103207265D01*
X114087265Y-103397915D01*
X113919161Y-103608712D01*
X113775714Y-103837005D01*
X113658734Y-104079917D01*
X113569687Y-104334397D01*
X113569684Y-104334405D01*
X113509688Y-104597268D01*
X113509686Y-104597280D01*
X113479500Y-104865186D01*
X113479500Y-105134813D01*
X113509686Y-105402719D01*
X113509688Y-105402731D01*
X113569684Y-105665594D01*
X113569687Y-105665602D01*
X113658734Y-105920082D01*
X113775714Y-106162994D01*
X113775716Y-106162997D01*
X113919162Y-106391289D01*
X114087266Y-106602085D01*
X114277915Y-106792734D01*
X114488711Y-106960838D01*
X114717003Y-107104284D01*
X114959921Y-107221267D01*
X115030411Y-107245932D01*
X115066209Y-107258459D01*
X115122985Y-107299180D01*
X115148732Y-107364133D01*
X115135276Y-107432695D01*
X115086888Y-107483098D01*
X115025254Y-107499500D01*
X111624500Y-107499500D01*
X111557461Y-107479815D01*
X111511706Y-107427011D01*
X111500500Y-107375500D01*
X111500500Y-53124500D01*
X111520185Y-53057461D01*
X111572989Y-53011706D01*
X111624500Y-53000500D01*
X179375500Y-53000500D01*
X179442539Y-53020185D01*
G37*
G04 #@! TD.AperFunction*
G04 #@! TA.AperFunction,Conductor*
G36*
X153189681Y-105665579D02*
G01*
X153189684Y-105665592D01*
X153203041Y-105703762D01*
X153210000Y-105744717D01*
X153210000Y-106276606D01*
X153264425Y-106267987D01*
X153336337Y-106244621D01*
X153406178Y-106242624D01*
X153466011Y-106278704D01*
X153479650Y-106296579D01*
X153539154Y-106391279D01*
X153539158Y-106391284D01*
X153539162Y-106391289D01*
X153707266Y-106602085D01*
X153897915Y-106792734D01*
X154108711Y-106960838D01*
X154337003Y-107104284D01*
X154579921Y-107221267D01*
X154650411Y-107245932D01*
X154686209Y-107258459D01*
X154742985Y-107299180D01*
X154768732Y-107364133D01*
X154755276Y-107432695D01*
X154706888Y-107483098D01*
X154645254Y-107499500D01*
X151274746Y-107499500D01*
X151207707Y-107479815D01*
X151161952Y-107427011D01*
X151152008Y-107357853D01*
X151181033Y-107294297D01*
X151233791Y-107258459D01*
X151259608Y-107249424D01*
X151340079Y-107221267D01*
X151582997Y-107104284D01*
X151811289Y-106960838D01*
X152022085Y-106792734D01*
X152212734Y-106602085D01*
X152380838Y-106391289D01*
X152440348Y-106296578D01*
X152492681Y-106250288D01*
X152561734Y-106239639D01*
X152583660Y-106244620D01*
X152655578Y-106267988D01*
X152710000Y-106276607D01*
X152710000Y-105744717D01*
X152716959Y-105703762D01*
X152730312Y-105665602D01*
X152730316Y-105665591D01*
X152775376Y-105468167D01*
X152894174Y-105500000D01*
X153025826Y-105500000D01*
X153144622Y-105468167D01*
X153189681Y-105665579D01*
G37*
G04 #@! TD.AperFunction*
G04 #@! TA.AperFunction,Conductor*
G36*
X156835973Y-107078503D02*
G01*
X156877003Y-107104284D01*
X157119921Y-107221267D01*
X157190411Y-107245932D01*
X157226209Y-107258459D01*
X157282985Y-107299180D01*
X157308732Y-107364133D01*
X157295276Y-107432695D01*
X157246888Y-107483098D01*
X157185254Y-107499500D01*
X156354746Y-107499500D01*
X156287707Y-107479815D01*
X156241952Y-107427011D01*
X156232008Y-107357853D01*
X156261033Y-107294297D01*
X156313791Y-107258459D01*
X156339608Y-107249424D01*
X156420079Y-107221267D01*
X156662997Y-107104284D01*
X156704027Y-107078503D01*
X156771264Y-107059502D01*
X156835973Y-107078503D01*
G37*
G04 #@! TD.AperFunction*
G04 #@! TA.AperFunction,Conductor*
G36*
X159375973Y-107078503D02*
G01*
X159417003Y-107104284D01*
X159659921Y-107221267D01*
X159730411Y-107245932D01*
X159766209Y-107258459D01*
X159822985Y-107299180D01*
X159848732Y-107364133D01*
X159835276Y-107432695D01*
X159786888Y-107483098D01*
X159725254Y-107499500D01*
X158894746Y-107499500D01*
X158827707Y-107479815D01*
X158781952Y-107427011D01*
X158772008Y-107357853D01*
X158801033Y-107294297D01*
X158853791Y-107258459D01*
X158879608Y-107249424D01*
X158960079Y-107221267D01*
X159202997Y-107104284D01*
X159244027Y-107078503D01*
X159311264Y-107059502D01*
X159375973Y-107078503D01*
G37*
G04 #@! TD.AperFunction*
G04 #@! TA.AperFunction,Conductor*
G36*
X174684185Y-77153050D02*
G01*
X174693147Y-77151762D01*
X174717187Y-77162740D01*
X174742539Y-77170185D01*
X174748466Y-77177025D01*
X174756703Y-77180787D01*
X174770992Y-77203021D01*
X174788294Y-77222989D01*
X174790581Y-77233503D01*
X174794477Y-77239565D01*
X174799500Y-77274500D01*
X174799500Y-77462887D01*
X174814317Y-77651151D01*
X174873127Y-77896112D01*
X174873127Y-77896114D01*
X174951487Y-78085292D01*
X174958956Y-78154761D01*
X174953968Y-78173698D01*
X174893440Y-78346681D01*
X174893438Y-78346687D01*
X174830945Y-78620487D01*
X174830942Y-78620505D01*
X174799500Y-78899568D01*
X174799500Y-79180431D01*
X174830942Y-79459494D01*
X174830945Y-79459512D01*
X174893439Y-79733317D01*
X174893443Y-79733329D01*
X174986200Y-79998411D01*
X175108053Y-80251442D01*
X175108055Y-80251445D01*
X175257477Y-80489248D01*
X175388113Y-80653060D01*
X175411259Y-80682085D01*
X175432584Y-80708825D01*
X175631175Y-80907416D01*
X175850752Y-81082523D01*
X176088555Y-81231945D01*
X176341592Y-81353801D01*
X176492369Y-81406560D01*
X176606670Y-81446556D01*
X176606682Y-81446560D01*
X176880491Y-81509055D01*
X176880497Y-81509055D01*
X176880505Y-81509057D01*
X177066547Y-81530018D01*
X177159569Y-81540499D01*
X177159572Y-81540500D01*
X177159575Y-81540500D01*
X177840428Y-81540500D01*
X177840429Y-81540499D01*
X177983055Y-81524429D01*
X178119494Y-81509057D01*
X178119499Y-81509056D01*
X178119509Y-81509055D01*
X178393318Y-81446560D01*
X178658408Y-81353801D01*
X178911445Y-81231945D01*
X179149248Y-81082523D01*
X179298187Y-80963748D01*
X179362874Y-80937339D01*
X179431569Y-80950096D01*
X179482463Y-80997966D01*
X179499500Y-81060695D01*
X179499500Y-107375500D01*
X179479815Y-107442539D01*
X179427011Y-107488294D01*
X179375500Y-107499500D01*
X161434746Y-107499500D01*
X161367707Y-107479815D01*
X161321952Y-107427011D01*
X161312008Y-107357853D01*
X161341033Y-107294297D01*
X161393791Y-107258459D01*
X161419608Y-107249424D01*
X161500079Y-107221267D01*
X161742997Y-107104284D01*
X161971289Y-106960838D01*
X162182085Y-106792734D01*
X162372734Y-106602085D01*
X162540838Y-106391289D01*
X162684284Y-106162997D01*
X162801267Y-105920079D01*
X162890316Y-105665591D01*
X162950312Y-105402732D01*
X162980500Y-105134809D01*
X162980500Y-104865191D01*
X162950312Y-104597268D01*
X162890316Y-104334409D01*
X162801267Y-104079921D01*
X162684284Y-103837003D01*
X162540838Y-103608711D01*
X162372734Y-103397915D01*
X162182085Y-103207266D01*
X161971289Y-103039162D01*
X161742997Y-102895716D01*
X161742994Y-102895714D01*
X161500082Y-102778734D01*
X161245602Y-102689687D01*
X161245594Y-102689684D01*
X161048446Y-102644687D01*
X160982732Y-102629688D01*
X160982728Y-102629687D01*
X160982719Y-102629686D01*
X160714813Y-102599500D01*
X160714809Y-102599500D01*
X160445191Y-102599500D01*
X160445186Y-102599500D01*
X160177280Y-102629686D01*
X160177268Y-102629688D01*
X159914405Y-102689684D01*
X159914397Y-102689687D01*
X159659917Y-102778734D01*
X159417001Y-102895716D01*
X159416999Y-102895717D01*
X159375971Y-102921497D01*
X159308734Y-102940497D01*
X159244029Y-102921497D01*
X159203000Y-102895717D01*
X159202998Y-102895716D01*
X158960082Y-102778734D01*
X158773545Y-102713461D01*
X158716769Y-102672739D01*
X158691022Y-102607787D01*
X158690500Y-102596420D01*
X158690500Y-101975928D01*
X158665502Y-101850261D01*
X158665501Y-101850260D01*
X158665501Y-101850256D01*
X158616465Y-101731873D01*
X158616464Y-101731870D01*
X158545277Y-101625331D01*
X158545271Y-101625324D01*
X148994673Y-92074726D01*
X148920587Y-92025224D01*
X148888127Y-92003535D01*
X148769744Y-91954499D01*
X148769738Y-91954497D01*
X148644071Y-91929500D01*
X148644069Y-91929500D01*
X128903579Y-91929500D01*
X128836540Y-91909815D01*
X128790785Y-91857011D01*
X128786544Y-91846472D01*
X128721267Y-91659921D01*
X128604284Y-91417003D01*
X128460838Y-91188711D01*
X128292734Y-90977915D01*
X128102085Y-90787266D01*
X127891289Y-90619162D01*
X127662997Y-90475716D01*
X127662994Y-90475714D01*
X127420082Y-90358734D01*
X127165602Y-90269687D01*
X127165594Y-90269684D01*
X126968446Y-90224687D01*
X126902732Y-90209688D01*
X126902728Y-90209687D01*
X126902719Y-90209686D01*
X126634813Y-90179500D01*
X126634809Y-90179500D01*
X126365191Y-90179500D01*
X126365186Y-90179500D01*
X126097280Y-90209686D01*
X126097268Y-90209688D01*
X125834405Y-90269684D01*
X125834397Y-90269687D01*
X125579917Y-90358734D01*
X125337005Y-90475714D01*
X125108712Y-90619161D01*
X124897915Y-90787265D01*
X124707265Y-90977915D01*
X124539161Y-91188712D01*
X124395714Y-91417005D01*
X124278738Y-91659909D01*
X124278735Y-91659914D01*
X124278733Y-91659921D01*
X124213461Y-91846457D01*
X124172741Y-91903231D01*
X124107788Y-91928978D01*
X124096421Y-91929500D01*
X122400808Y-91929500D01*
X122333769Y-91909815D01*
X122313127Y-91893181D01*
X119914674Y-89494727D01*
X119914673Y-89494726D01*
X119914669Y-89494723D01*
X119808127Y-89423535D01*
X119689744Y-89374499D01*
X119689738Y-89374497D01*
X119564071Y-89349500D01*
X119564069Y-89349500D01*
X118074500Y-89349500D01*
X118007461Y-89329815D01*
X117961706Y-89277011D01*
X117950500Y-89225500D01*
X117950500Y-89127125D01*
X117950500Y-89127118D01*
X117935683Y-88938852D01*
X117876873Y-88693889D01*
X117787414Y-88477916D01*
X117784492Y-88450737D01*
X117778137Y-88424145D01*
X117780395Y-88412636D01*
X117779946Y-88408451D01*
X117784933Y-88389519D01*
X117839511Y-88233545D01*
X117880233Y-88176769D01*
X117945185Y-88151022D01*
X117956552Y-88150500D01*
X118564071Y-88150500D01*
X118648615Y-88133682D01*
X118689744Y-88125501D01*
X118808127Y-88076465D01*
X118840586Y-88054777D01*
X118840587Y-88054777D01*
X118896022Y-88017736D01*
X118914669Y-88005277D01*
X120005277Y-86914669D01*
X120076466Y-86808126D01*
X120125501Y-86689743D01*
X120150500Y-86564069D01*
X120150500Y-86435931D01*
X120150500Y-83194500D01*
X120170185Y-83127461D01*
X120222989Y-83081706D01*
X120274500Y-83070500D01*
X123515931Y-83070500D01*
X124096421Y-83070500D01*
X124163460Y-83090185D01*
X124209215Y-83142989D01*
X124213455Y-83153527D01*
X124278733Y-83340079D01*
X124278737Y-83340087D01*
X124278738Y-83340090D01*
X124395714Y-83582994D01*
X124395716Y-83582997D01*
X124539162Y-83811289D01*
X124565828Y-83844727D01*
X124684740Y-83993839D01*
X124707266Y-84022085D01*
X124897915Y-84212734D01*
X125108711Y-84380838D01*
X125337003Y-84524284D01*
X125579921Y-84641267D01*
X125755107Y-84702567D01*
X125834397Y-84730312D01*
X125834405Y-84730315D01*
X125834408Y-84730315D01*
X125834409Y-84730316D01*
X126097268Y-84790312D01*
X126365187Y-84820499D01*
X126365188Y-84820500D01*
X126365191Y-84820500D01*
X126634812Y-84820500D01*
X126634812Y-84820499D01*
X126902732Y-84790312D01*
X127165591Y-84730316D01*
X127420079Y-84641267D01*
X127662997Y-84524284D01*
X127891289Y-84380838D01*
X128102085Y-84212734D01*
X128292734Y-84022085D01*
X128460838Y-83811289D01*
X128604284Y-83582997D01*
X128721267Y-83340079D01*
X128786538Y-83153542D01*
X128827259Y-83096769D01*
X128892212Y-83071022D01*
X128903579Y-83070500D01*
X141099192Y-83070500D01*
X141166231Y-83090185D01*
X141186873Y-83106819D01*
X149585324Y-91505271D01*
X149585331Y-91505277D01*
X149691871Y-91576464D01*
X149691870Y-91576464D01*
X149726544Y-91590826D01*
X149810256Y-91625501D01*
X149810260Y-91625501D01*
X149810261Y-91625502D01*
X149935928Y-91650500D01*
X149935931Y-91650500D01*
X159490474Y-91650500D01*
X159557513Y-91670185D01*
X159603268Y-91722989D01*
X159607515Y-91733545D01*
X159686200Y-91958411D01*
X159808053Y-92211442D01*
X159808055Y-92211445D01*
X159957477Y-92449248D01*
X160132584Y-92668825D01*
X160331175Y-92867416D01*
X160550752Y-93042523D01*
X160788555Y-93191945D01*
X161041592Y-93313801D01*
X161240680Y-93383465D01*
X161306670Y-93406556D01*
X161306682Y-93406560D01*
X161580491Y-93469055D01*
X161580497Y-93469055D01*
X161580505Y-93469057D01*
X161766547Y-93490018D01*
X161859569Y-93500499D01*
X161859572Y-93500500D01*
X161859575Y-93500500D01*
X162140428Y-93500500D01*
X162140429Y-93500499D01*
X162283055Y-93484429D01*
X162419494Y-93469057D01*
X162419499Y-93469056D01*
X162419509Y-93469055D01*
X162693318Y-93406560D01*
X162958408Y-93313801D01*
X163211445Y-93191945D01*
X163449248Y-93042523D01*
X163668825Y-92867416D01*
X163867416Y-92668825D01*
X164042523Y-92449248D01*
X164191945Y-92211445D01*
X164313801Y-91958408D01*
X164406560Y-91693318D01*
X164469055Y-91419509D01*
X164469338Y-91417003D01*
X164495059Y-91188712D01*
X164500500Y-91140425D01*
X164500500Y-90859575D01*
X164469055Y-90580491D01*
X164406560Y-90306682D01*
X164313801Y-90041592D01*
X164191945Y-89788555D01*
X164042523Y-89550752D01*
X163867416Y-89331175D01*
X163668825Y-89132584D01*
X163661963Y-89127112D01*
X163613060Y-89088113D01*
X163449248Y-88957477D01*
X163211445Y-88808055D01*
X163211442Y-88808053D01*
X162958411Y-88686200D01*
X162693329Y-88593443D01*
X162693317Y-88593439D01*
X162419512Y-88530945D01*
X162419494Y-88530942D01*
X162140431Y-88499500D01*
X162140425Y-88499500D01*
X161859575Y-88499500D01*
X161859568Y-88499500D01*
X161580505Y-88530942D01*
X161580487Y-88530945D01*
X161306682Y-88593439D01*
X161306670Y-88593443D01*
X161041588Y-88686200D01*
X160788557Y-88808053D01*
X160550753Y-88957476D01*
X160331175Y-89132583D01*
X160132583Y-89331175D01*
X159957476Y-89550753D01*
X159808053Y-89788557D01*
X159686200Y-90041588D01*
X159607515Y-90266455D01*
X159566793Y-90323231D01*
X159501841Y-90348978D01*
X159490474Y-90349500D01*
X158814500Y-90349500D01*
X158747461Y-90329815D01*
X158701706Y-90277011D01*
X158690500Y-90225500D01*
X158690500Y-85889818D01*
X160600000Y-85889818D01*
X160600000Y-86110181D01*
X160634473Y-86327835D01*
X160702567Y-86537410D01*
X160802611Y-86733756D01*
X160848932Y-86797513D01*
X161600000Y-86046445D01*
X161600000Y-86052661D01*
X161627259Y-86154394D01*
X161679920Y-86245606D01*
X161754394Y-86320080D01*
X161845606Y-86372741D01*
X161947339Y-86400000D01*
X161953553Y-86400000D01*
X161202485Y-87151065D01*
X161202485Y-87151066D01*
X161266243Y-87197388D01*
X161462589Y-87297432D01*
X161672164Y-87365526D01*
X161889819Y-87400000D01*
X162110181Y-87400000D01*
X162327835Y-87365526D01*
X162537410Y-87297432D01*
X162733760Y-87197386D01*
X162797513Y-87151066D01*
X162797514Y-87151066D01*
X162046447Y-86400000D01*
X162052661Y-86400000D01*
X162154394Y-86372741D01*
X162245606Y-86320080D01*
X162320080Y-86245606D01*
X162372741Y-86154394D01*
X162400000Y-86052661D01*
X162400000Y-86046448D01*
X163151066Y-86797514D01*
X163151066Y-86797513D01*
X163197386Y-86733760D01*
X163297432Y-86537410D01*
X163365526Y-86327835D01*
X163400000Y-86110181D01*
X163400000Y-85889818D01*
X163365526Y-85672164D01*
X163297432Y-85462589D01*
X163197388Y-85266243D01*
X163151066Y-85202485D01*
X163151065Y-85202485D01*
X162400000Y-85953551D01*
X162400000Y-85947339D01*
X162372741Y-85845606D01*
X162320080Y-85754394D01*
X162245606Y-85679920D01*
X162154394Y-85627259D01*
X162052661Y-85600000D01*
X162046445Y-85600000D01*
X162797513Y-84848932D01*
X162733756Y-84802611D01*
X162537410Y-84702567D01*
X162327835Y-84634473D01*
X162110181Y-84600000D01*
X161889819Y-84600000D01*
X161672164Y-84634473D01*
X161462589Y-84702567D01*
X161266233Y-84802616D01*
X161202485Y-84848931D01*
X161202485Y-84848932D01*
X161953553Y-85600000D01*
X161947339Y-85600000D01*
X161845606Y-85627259D01*
X161754394Y-85679920D01*
X161679920Y-85754394D01*
X161627259Y-85845606D01*
X161600000Y-85947339D01*
X161600000Y-85953553D01*
X160848932Y-85202485D01*
X160848931Y-85202485D01*
X160802616Y-85266233D01*
X160702567Y-85462589D01*
X160634473Y-85672164D01*
X160600000Y-85889818D01*
X158690500Y-85889818D01*
X158690500Y-84310470D01*
X158710185Y-84243431D01*
X158762989Y-84197676D01*
X158773531Y-84193433D01*
X159036737Y-84101335D01*
X159299893Y-83974605D01*
X159547206Y-83819208D01*
X159775565Y-83637098D01*
X159982098Y-83430565D01*
X160164208Y-83202206D01*
X160319605Y-82954893D01*
X160446335Y-82691737D01*
X160542803Y-82416045D01*
X160607798Y-82131286D01*
X160608445Y-82125550D01*
X160632626Y-81910925D01*
X160640500Y-81841041D01*
X160640500Y-81048959D01*
X160624552Y-80907416D01*
X160607800Y-80758728D01*
X160607799Y-80758723D01*
X160607798Y-80758714D01*
X160542803Y-80473955D01*
X160446335Y-80198263D01*
X160323816Y-79943852D01*
X160319606Y-79935109D01*
X160260142Y-79840472D01*
X160257852Y-79832370D01*
X160252342Y-79826011D01*
X160248494Y-79799255D01*
X160241142Y-79773235D01*
X160243595Y-79765183D01*
X160242398Y-79756853D01*
X160253629Y-79732260D01*
X160261510Y-79706400D01*
X160267926Y-79700953D01*
X160271423Y-79693297D01*
X160294168Y-79678679D01*
X160314778Y-79661186D01*
X160324648Y-79659091D01*
X160330201Y-79655523D01*
X160365136Y-79650500D01*
X160490474Y-79650500D01*
X160557513Y-79670185D01*
X160603268Y-79722989D01*
X160607515Y-79733545D01*
X160686200Y-79958411D01*
X160808053Y-80211442D01*
X160808055Y-80211445D01*
X160957477Y-80449248D01*
X161132584Y-80668825D01*
X161331175Y-80867416D01*
X161550752Y-81042523D01*
X161788555Y-81191945D01*
X162041592Y-81313801D01*
X162228417Y-81379174D01*
X162306670Y-81406556D01*
X162306682Y-81406560D01*
X162580491Y-81469055D01*
X162580497Y-81469055D01*
X162580505Y-81469057D01*
X162766547Y-81490018D01*
X162859569Y-81500499D01*
X162859572Y-81500500D01*
X162859575Y-81500500D01*
X163140428Y-81500500D01*
X163140429Y-81500499D01*
X163283055Y-81484429D01*
X163419494Y-81469057D01*
X163419499Y-81469056D01*
X163419509Y-81469055D01*
X163693318Y-81406560D01*
X163958408Y-81313801D01*
X164211445Y-81191945D01*
X164449248Y-81042523D01*
X164668825Y-80867416D01*
X164867416Y-80668825D01*
X165042523Y-80449248D01*
X165191945Y-80211445D01*
X165230150Y-80132112D01*
X165269691Y-80050005D01*
X165269692Y-80050003D01*
X165313796Y-79958419D01*
X165313797Y-79958416D01*
X165313801Y-79958408D01*
X165406560Y-79693318D01*
X165469055Y-79419509D01*
X165474325Y-79372741D01*
X165500499Y-79140431D01*
X165500500Y-79140427D01*
X165500500Y-78889818D01*
X166600000Y-78889818D01*
X166600000Y-79110181D01*
X166634473Y-79327835D01*
X166702567Y-79537410D01*
X166802611Y-79733756D01*
X166848932Y-79797513D01*
X167600000Y-79046445D01*
X167600000Y-79052661D01*
X167627259Y-79154394D01*
X167679920Y-79245606D01*
X167754394Y-79320080D01*
X167845606Y-79372741D01*
X167947339Y-79400000D01*
X167953553Y-79400000D01*
X167202485Y-80151065D01*
X167202485Y-80151066D01*
X167266243Y-80197388D01*
X167462589Y-80297432D01*
X167672164Y-80365526D01*
X167889819Y-80400000D01*
X168110181Y-80400000D01*
X168327835Y-80365526D01*
X168537410Y-80297432D01*
X168733760Y-80197386D01*
X168797513Y-80151066D01*
X168797514Y-80151066D01*
X168046447Y-79400000D01*
X168052661Y-79400000D01*
X168154394Y-79372741D01*
X168245606Y-79320080D01*
X168320080Y-79245606D01*
X168372741Y-79154394D01*
X168400000Y-79052661D01*
X168400000Y-79046448D01*
X169151066Y-79797514D01*
X169151066Y-79797513D01*
X169197386Y-79733760D01*
X169297432Y-79537410D01*
X169365526Y-79327835D01*
X169400000Y-79110181D01*
X169400000Y-78889818D01*
X169365526Y-78672164D01*
X169297432Y-78462589D01*
X169197388Y-78266243D01*
X169151066Y-78202485D01*
X169151065Y-78202485D01*
X168400000Y-78953551D01*
X168400000Y-78947339D01*
X168372741Y-78845606D01*
X168320080Y-78754394D01*
X168245606Y-78679920D01*
X168154394Y-78627259D01*
X168052661Y-78600000D01*
X168046445Y-78600000D01*
X168797513Y-77848932D01*
X168733756Y-77802611D01*
X168537410Y-77702567D01*
X168327835Y-77634473D01*
X168110181Y-77600000D01*
X167889819Y-77600000D01*
X167672164Y-77634473D01*
X167462589Y-77702567D01*
X167266233Y-77802616D01*
X167202485Y-77848931D01*
X167202485Y-77848932D01*
X167953553Y-78600000D01*
X167947339Y-78600000D01*
X167845606Y-78627259D01*
X167754394Y-78679920D01*
X167679920Y-78754394D01*
X167627259Y-78845606D01*
X167600000Y-78947339D01*
X167600000Y-78953553D01*
X166848932Y-78202485D01*
X166848931Y-78202485D01*
X166802616Y-78266233D01*
X166702567Y-78462589D01*
X166634473Y-78672164D01*
X166600000Y-78889818D01*
X165500500Y-78889818D01*
X165500500Y-78859572D01*
X165500499Y-78859568D01*
X165469057Y-78580505D01*
X165469054Y-78580487D01*
X165406560Y-78306682D01*
X165406556Y-78306670D01*
X165360027Y-78173698D01*
X165313801Y-78041592D01*
X165210436Y-77826951D01*
X165199084Y-77758010D01*
X165226806Y-77693876D01*
X165234463Y-77685481D01*
X165733127Y-77186819D01*
X165794450Y-77153334D01*
X165820808Y-77150500D01*
X174675500Y-77150500D01*
X174684185Y-77153050D01*
G37*
G04 #@! TD.AperFunction*
G04 #@! TA.AperFunction,Conductor*
G36*
X138274075Y-56547007D02*
G01*
X138240000Y-56674174D01*
X138240000Y-56805826D01*
X138274075Y-56932993D01*
X138306988Y-56990000D01*
X136633012Y-56990000D01*
X136665925Y-56932993D01*
X136700000Y-56805826D01*
X136700000Y-56674174D01*
X136665925Y-56547007D01*
X136633012Y-56490000D01*
X138306988Y-56490000D01*
X138274075Y-56547007D01*
G37*
G04 #@! TD.AperFunction*
G04 #@! TA.AperFunction,NonConductor*
G36*
X127327713Y-58804332D02*
G01*
X127343720Y-58804169D01*
X127375973Y-58818503D01*
X127417003Y-58844284D01*
X127659921Y-58961267D01*
X127846452Y-59026537D01*
X127914397Y-59050312D01*
X127914405Y-59050315D01*
X127914408Y-59050315D01*
X127914409Y-59050316D01*
X128177268Y-59110312D01*
X128445187Y-59140499D01*
X128445188Y-59140500D01*
X128445191Y-59140500D01*
X128714812Y-59140500D01*
X128714812Y-59140499D01*
X128982732Y-59110312D01*
X129245591Y-59050316D01*
X129500079Y-58961267D01*
X129678133Y-58875520D01*
X129747072Y-58864169D01*
X129811207Y-58891891D01*
X129819614Y-58899560D01*
X130813181Y-59893127D01*
X130846666Y-59954450D01*
X130849500Y-59980808D01*
X130849500Y-76179191D01*
X130829815Y-76246230D01*
X130813181Y-76266872D01*
X128909481Y-78170571D01*
X128848158Y-78204056D01*
X128778466Y-78199072D01*
X128722533Y-78157200D01*
X128710080Y-78136691D01*
X128604287Y-77917008D01*
X128604284Y-77917003D01*
X128460838Y-77688711D01*
X128292734Y-77477915D01*
X128102085Y-77287266D01*
X127891289Y-77119162D01*
X127662997Y-76975716D01*
X127662994Y-76975714D01*
X127420082Y-76858734D01*
X127165602Y-76769687D01*
X127165594Y-76769684D01*
X126968446Y-76724687D01*
X126902732Y-76709688D01*
X126902728Y-76709687D01*
X126902719Y-76709686D01*
X126634813Y-76679500D01*
X126634809Y-76679500D01*
X126365191Y-76679500D01*
X126365186Y-76679500D01*
X126097280Y-76709686D01*
X126097268Y-76709688D01*
X125834405Y-76769684D01*
X125834397Y-76769687D01*
X125579917Y-76858734D01*
X125337005Y-76975714D01*
X125108712Y-77119161D01*
X124897915Y-77287265D01*
X124707265Y-77477915D01*
X124539161Y-77688712D01*
X124395714Y-77917005D01*
X124278734Y-78159917D01*
X124189687Y-78414397D01*
X124189684Y-78414405D01*
X124129688Y-78677268D01*
X124129685Y-78677282D01*
X124113675Y-78819383D01*
X124086609Y-78883797D01*
X124029014Y-78923353D01*
X123990455Y-78929500D01*
X118074500Y-78929500D01*
X118007461Y-78909815D01*
X117961706Y-78857011D01*
X117950500Y-78805500D01*
X117950500Y-78667125D01*
X117950500Y-78667118D01*
X117935683Y-78478852D01*
X117876873Y-78233889D01*
X117787414Y-78017916D01*
X117784492Y-77990737D01*
X117778137Y-77964145D01*
X117780395Y-77952636D01*
X117779946Y-77948451D01*
X117784933Y-77929519D01*
X117820823Y-77826951D01*
X117853508Y-77733545D01*
X117894230Y-77676769D01*
X117959182Y-77651022D01*
X117970549Y-77650500D01*
X118064071Y-77650500D01*
X118148615Y-77633682D01*
X118189744Y-77625501D01*
X118308127Y-77576465D01*
X118313735Y-77572718D01*
X118414669Y-77505277D01*
X120925277Y-74994669D01*
X120996465Y-74888127D01*
X121003501Y-74871141D01*
X121045501Y-74769744D01*
X121068058Y-74656346D01*
X121070500Y-74644071D01*
X121070500Y-72320808D01*
X121090185Y-72253769D01*
X121106819Y-72233127D01*
X123733127Y-69606819D01*
X123794450Y-69573334D01*
X123820808Y-69570500D01*
X124096421Y-69570500D01*
X124163460Y-69590185D01*
X124209215Y-69642989D01*
X124213455Y-69653527D01*
X124278733Y-69840079D01*
X124278737Y-69840087D01*
X124278738Y-69840090D01*
X124395714Y-70082994D01*
X124395716Y-70082997D01*
X124539162Y-70311289D01*
X124707266Y-70522085D01*
X124897915Y-70712734D01*
X125108711Y-70880838D01*
X125337003Y-71024284D01*
X125579921Y-71141267D01*
X125737920Y-71196553D01*
X125834397Y-71230312D01*
X125834405Y-71230315D01*
X125834408Y-71230315D01*
X125834409Y-71230316D01*
X126097268Y-71290312D01*
X126365187Y-71320499D01*
X126365188Y-71320500D01*
X126365191Y-71320500D01*
X126634812Y-71320500D01*
X126634812Y-71320499D01*
X126902732Y-71290312D01*
X127165591Y-71230316D01*
X127420079Y-71141267D01*
X127662997Y-71024284D01*
X127891289Y-70880838D01*
X128102085Y-70712734D01*
X128292734Y-70522085D01*
X128460838Y-70311289D01*
X128604284Y-70082997D01*
X128721267Y-69840079D01*
X128810316Y-69585591D01*
X128870312Y-69322732D01*
X128900500Y-69054809D01*
X128900500Y-68785191D01*
X128870312Y-68517268D01*
X128810316Y-68254409D01*
X128721267Y-67999921D01*
X128617444Y-67784331D01*
X128604285Y-67757005D01*
X128484816Y-67566872D01*
X128460838Y-67528711D01*
X128292734Y-67317915D01*
X128102085Y-67127266D01*
X127891289Y-66959162D01*
X127662997Y-66815716D01*
X127662994Y-66815714D01*
X127420082Y-66698734D01*
X127165602Y-66609687D01*
X127165594Y-66609684D01*
X126968446Y-66564687D01*
X126902732Y-66549688D01*
X126902728Y-66549687D01*
X126902719Y-66549686D01*
X126634813Y-66519500D01*
X126634809Y-66519500D01*
X126365191Y-66519500D01*
X126365186Y-66519500D01*
X126097280Y-66549686D01*
X126097268Y-66549688D01*
X125834405Y-66609684D01*
X125834397Y-66609687D01*
X125579917Y-66698734D01*
X125337005Y-66815714D01*
X125108712Y-66959161D01*
X124897915Y-67127265D01*
X124707265Y-67317915D01*
X124539161Y-67528712D01*
X124395714Y-67757005D01*
X124278738Y-67999909D01*
X124278735Y-67999914D01*
X124278733Y-67999921D01*
X124213461Y-68186457D01*
X124172741Y-68243231D01*
X124107788Y-68268978D01*
X124096421Y-68269500D01*
X123435929Y-68269500D01*
X123310261Y-68294497D01*
X123310255Y-68294499D01*
X123230894Y-68327372D01*
X123230893Y-68327372D01*
X123191876Y-68343532D01*
X123085326Y-68414726D01*
X123085325Y-68414727D01*
X120186873Y-71313181D01*
X120125550Y-71346666D01*
X120099192Y-71349500D01*
X118011746Y-71349500D01*
X117944707Y-71329815D01*
X117898952Y-71277011D01*
X117889008Y-71207853D01*
X117891172Y-71196553D01*
X117935682Y-71011151D01*
X117935683Y-71011148D01*
X117950500Y-70822882D01*
X117950500Y-70020808D01*
X117970185Y-69953769D01*
X117986819Y-69933127D01*
X119505273Y-68414673D01*
X119505277Y-68414669D01*
X119576465Y-68308127D01*
X119625501Y-68189744D01*
X119640102Y-68116341D01*
X119650500Y-68064069D01*
X119650500Y-59795931D01*
X119650500Y-59795928D01*
X119625502Y-59670261D01*
X119625501Y-59670260D01*
X119625501Y-59670256D01*
X119576465Y-59551873D01*
X119576464Y-59551870D01*
X119505277Y-59445331D01*
X119505271Y-59445324D01*
X119243411Y-59183464D01*
X119209926Y-59122141D01*
X119214910Y-59052449D01*
X119256782Y-58996516D01*
X119290140Y-58978741D01*
X119340071Y-58961270D01*
X119340073Y-58961268D01*
X119340079Y-58961267D01*
X119582997Y-58844284D01*
X119624027Y-58818503D01*
X119691264Y-58799502D01*
X119755973Y-58818503D01*
X119797003Y-58844284D01*
X120039921Y-58961267D01*
X120226452Y-59026537D01*
X120294397Y-59050312D01*
X120294405Y-59050315D01*
X120294408Y-59050315D01*
X120294409Y-59050316D01*
X120557268Y-59110312D01*
X120825187Y-59140499D01*
X120825188Y-59140500D01*
X120825191Y-59140500D01*
X121094812Y-59140500D01*
X121094812Y-59140499D01*
X121362732Y-59110312D01*
X121625591Y-59050316D01*
X121880079Y-58961267D01*
X122122997Y-58844284D01*
X122164027Y-58818503D01*
X122231264Y-58799502D01*
X122295973Y-58818503D01*
X122337003Y-58844284D01*
X122579921Y-58961267D01*
X122766452Y-59026537D01*
X122834397Y-59050312D01*
X122834405Y-59050315D01*
X122834408Y-59050315D01*
X122834409Y-59050316D01*
X123097268Y-59110312D01*
X123365187Y-59140499D01*
X123365188Y-59140500D01*
X123365191Y-59140500D01*
X123634812Y-59140500D01*
X123634812Y-59140499D01*
X123902732Y-59110312D01*
X124165591Y-59050316D01*
X124420079Y-58961267D01*
X124662997Y-58844284D01*
X124704027Y-58818503D01*
X124771264Y-58799502D01*
X124835973Y-58818503D01*
X124877003Y-58844284D01*
X125119921Y-58961267D01*
X125306452Y-59026537D01*
X125374397Y-59050312D01*
X125374405Y-59050315D01*
X125374408Y-59050315D01*
X125374409Y-59050316D01*
X125637268Y-59110312D01*
X125905187Y-59140499D01*
X125905188Y-59140500D01*
X125905191Y-59140500D01*
X126174812Y-59140500D01*
X126174812Y-59140499D01*
X126442732Y-59110312D01*
X126705591Y-59050316D01*
X126960079Y-58961267D01*
X127202997Y-58844284D01*
X127244027Y-58818503D01*
X127259990Y-58813991D01*
X127273854Y-58804881D01*
X127292917Y-58804686D01*
X127311264Y-58799502D01*
X127327713Y-58804332D01*
G37*
G04 #@! TD.AperFunction*
G04 #@! TA.AperFunction,NonConductor*
G36*
X124386370Y-80250185D02*
G01*
X124424325Y-80288528D01*
X124539162Y-80471289D01*
X124556382Y-80492882D01*
X124699771Y-80672687D01*
X124726180Y-80737374D01*
X124713423Y-80806070D01*
X124699771Y-80827313D01*
X124539161Y-81028712D01*
X124395714Y-81257005D01*
X124278738Y-81499909D01*
X124278735Y-81499914D01*
X124278733Y-81499921D01*
X124213461Y-81686457D01*
X124172741Y-81743231D01*
X124107788Y-81768978D01*
X124096421Y-81769500D01*
X117579732Y-81769500D01*
X117512693Y-81749815D01*
X117466938Y-81697011D01*
X117456994Y-81627853D01*
X117485441Y-81564969D01*
X117648836Y-81373659D01*
X117780466Y-81158859D01*
X117876873Y-80926111D01*
X117935683Y-80681148D01*
X117950500Y-80492882D01*
X117950500Y-80354500D01*
X117970185Y-80287461D01*
X118022989Y-80241706D01*
X118074500Y-80230500D01*
X124319331Y-80230500D01*
X124386370Y-80250185D01*
G37*
G04 #@! TD.AperFunction*
G04 #@! TA.AperFunction,NonConductor*
G36*
X149215973Y-107078503D02*
G01*
X149257003Y-107104284D01*
X149499921Y-107221267D01*
X149570411Y-107245932D01*
X149606209Y-107258459D01*
X149662985Y-107299180D01*
X149688732Y-107364133D01*
X149675276Y-107432695D01*
X149626888Y-107483098D01*
X149565254Y-107499500D01*
X148734746Y-107499500D01*
X148667707Y-107479815D01*
X148621952Y-107427011D01*
X148612008Y-107357853D01*
X148641033Y-107294297D01*
X148693791Y-107258459D01*
X148719608Y-107249424D01*
X148800079Y-107221267D01*
X149042997Y-107104284D01*
X149084027Y-107078503D01*
X149151264Y-107059502D01*
X149215973Y-107078503D01*
G37*
G04 #@! TD.AperFunction*
G04 #@! TA.AperFunction,NonConductor*
G36*
X146675973Y-107078503D02*
G01*
X146717003Y-107104284D01*
X146959921Y-107221267D01*
X147030411Y-107245932D01*
X147066209Y-107258459D01*
X147122985Y-107299180D01*
X147148732Y-107364133D01*
X147135276Y-107432695D01*
X147086888Y-107483098D01*
X147025254Y-107499500D01*
X146194746Y-107499500D01*
X146127707Y-107479815D01*
X146081952Y-107427011D01*
X146072008Y-107357853D01*
X146101033Y-107294297D01*
X146153791Y-107258459D01*
X146179608Y-107249424D01*
X146260079Y-107221267D01*
X146502997Y-107104284D01*
X146544027Y-107078503D01*
X146611264Y-107059502D01*
X146675973Y-107078503D01*
G37*
G04 #@! TD.AperFunction*
G04 #@! TA.AperFunction,NonConductor*
G36*
X144135973Y-107078503D02*
G01*
X144177003Y-107104284D01*
X144419921Y-107221267D01*
X144490411Y-107245932D01*
X144526209Y-107258459D01*
X144582985Y-107299180D01*
X144608732Y-107364133D01*
X144595276Y-107432695D01*
X144546888Y-107483098D01*
X144485254Y-107499500D01*
X143654746Y-107499500D01*
X143587707Y-107479815D01*
X143541952Y-107427011D01*
X143532008Y-107357853D01*
X143561033Y-107294297D01*
X143613791Y-107258459D01*
X143639608Y-107249424D01*
X143720079Y-107221267D01*
X143962997Y-107104284D01*
X144004027Y-107078503D01*
X144071264Y-107059502D01*
X144135973Y-107078503D01*
G37*
G04 #@! TD.AperFunction*
G04 #@! TA.AperFunction,NonConductor*
G36*
X141595973Y-107078503D02*
G01*
X141637003Y-107104284D01*
X141879921Y-107221267D01*
X141950411Y-107245932D01*
X141986209Y-107258459D01*
X142042985Y-107299180D01*
X142068732Y-107364133D01*
X142055276Y-107432695D01*
X142006888Y-107483098D01*
X141945254Y-107499500D01*
X141114746Y-107499500D01*
X141047707Y-107479815D01*
X141001952Y-107427011D01*
X140992008Y-107357853D01*
X141021033Y-107294297D01*
X141073791Y-107258459D01*
X141099608Y-107249424D01*
X141180079Y-107221267D01*
X141422997Y-107104284D01*
X141464027Y-107078503D01*
X141531264Y-107059502D01*
X141595973Y-107078503D01*
G37*
G04 #@! TD.AperFunction*
G04 #@! TA.AperFunction,NonConductor*
G36*
X139055973Y-107078503D02*
G01*
X139097003Y-107104284D01*
X139339921Y-107221267D01*
X139410411Y-107245932D01*
X139446209Y-107258459D01*
X139502985Y-107299180D01*
X139528732Y-107364133D01*
X139515276Y-107432695D01*
X139466888Y-107483098D01*
X139405254Y-107499500D01*
X138574746Y-107499500D01*
X138507707Y-107479815D01*
X138461952Y-107427011D01*
X138452008Y-107357853D01*
X138481033Y-107294297D01*
X138533791Y-107258459D01*
X138559608Y-107249424D01*
X138640079Y-107221267D01*
X138882997Y-107104284D01*
X138924027Y-107078503D01*
X138991264Y-107059502D01*
X139055973Y-107078503D01*
G37*
G04 #@! TD.AperFunction*
G04 #@! TA.AperFunction,NonConductor*
G36*
X135707222Y-106383663D02*
G01*
X135720053Y-106383140D01*
X135739683Y-106394652D01*
X135761239Y-106401949D01*
X135776329Y-106416142D01*
X135780323Y-106418485D01*
X135786943Y-106426126D01*
X135927266Y-106602085D01*
X136117915Y-106792734D01*
X136328711Y-106960838D01*
X136557003Y-107104284D01*
X136799921Y-107221267D01*
X136870411Y-107245932D01*
X136906209Y-107258459D01*
X136962985Y-107299180D01*
X136988732Y-107364133D01*
X136975276Y-107432695D01*
X136926888Y-107483098D01*
X136865254Y-107499500D01*
X134514746Y-107499500D01*
X134447707Y-107479815D01*
X134401952Y-107427011D01*
X134392008Y-107357853D01*
X134421033Y-107294297D01*
X134473791Y-107258459D01*
X134499608Y-107249424D01*
X134580079Y-107221267D01*
X134822997Y-107104284D01*
X135051289Y-106960838D01*
X135262085Y-106792734D01*
X135452734Y-106602085D01*
X135593053Y-106426129D01*
X135611679Y-106413056D01*
X135627271Y-106396480D01*
X135639730Y-106393367D01*
X135650241Y-106385990D01*
X135672978Y-106385061D01*
X135695058Y-106379546D01*
X135707222Y-106383663D01*
G37*
G04 #@! TD.AperFunction*
G04 #@! TA.AperFunction,NonConductor*
G36*
X132455973Y-107078503D02*
G01*
X132497003Y-107104284D01*
X132739921Y-107221267D01*
X132810411Y-107245932D01*
X132846209Y-107258459D01*
X132902985Y-107299180D01*
X132928732Y-107364133D01*
X132915276Y-107432695D01*
X132866888Y-107483098D01*
X132805254Y-107499500D01*
X131974746Y-107499500D01*
X131907707Y-107479815D01*
X131861952Y-107427011D01*
X131852008Y-107357853D01*
X131881033Y-107294297D01*
X131933791Y-107258459D01*
X131959608Y-107249424D01*
X132040079Y-107221267D01*
X132282997Y-107104284D01*
X132324027Y-107078503D01*
X132391264Y-107059502D01*
X132455973Y-107078503D01*
G37*
G04 #@! TD.AperFunction*
G04 #@! TA.AperFunction,NonConductor*
G36*
X129915973Y-107078503D02*
G01*
X129957003Y-107104284D01*
X130199921Y-107221267D01*
X130270411Y-107245932D01*
X130306209Y-107258459D01*
X130362985Y-107299180D01*
X130388732Y-107364133D01*
X130375276Y-107432695D01*
X130326888Y-107483098D01*
X130265254Y-107499500D01*
X129434746Y-107499500D01*
X129367707Y-107479815D01*
X129321952Y-107427011D01*
X129312008Y-107357853D01*
X129341033Y-107294297D01*
X129393791Y-107258459D01*
X129419608Y-107249424D01*
X129500079Y-107221267D01*
X129742997Y-107104284D01*
X129784027Y-107078503D01*
X129851264Y-107059502D01*
X129915973Y-107078503D01*
G37*
G04 #@! TD.AperFunction*
G04 #@! TA.AperFunction,NonConductor*
G36*
X127375973Y-107078503D02*
G01*
X127417003Y-107104284D01*
X127659921Y-107221267D01*
X127730411Y-107245932D01*
X127766209Y-107258459D01*
X127822985Y-107299180D01*
X127848732Y-107364133D01*
X127835276Y-107432695D01*
X127786888Y-107483098D01*
X127725254Y-107499500D01*
X126894746Y-107499500D01*
X126827707Y-107479815D01*
X126781952Y-107427011D01*
X126772008Y-107357853D01*
X126801033Y-107294297D01*
X126853791Y-107258459D01*
X126879608Y-107249424D01*
X126960079Y-107221267D01*
X127202997Y-107104284D01*
X127244027Y-107078503D01*
X127311264Y-107059502D01*
X127375973Y-107078503D01*
G37*
G04 #@! TD.AperFunction*
G04 #@! TA.AperFunction,NonConductor*
G36*
X124835973Y-107078503D02*
G01*
X124877003Y-107104284D01*
X125119921Y-107221267D01*
X125190411Y-107245932D01*
X125226209Y-107258459D01*
X125282985Y-107299180D01*
X125308732Y-107364133D01*
X125295276Y-107432695D01*
X125246888Y-107483098D01*
X125185254Y-107499500D01*
X124354746Y-107499500D01*
X124287707Y-107479815D01*
X124241952Y-107427011D01*
X124232008Y-107357853D01*
X124261033Y-107294297D01*
X124313791Y-107258459D01*
X124339608Y-107249424D01*
X124420079Y-107221267D01*
X124662997Y-107104284D01*
X124704027Y-107078503D01*
X124771264Y-107059502D01*
X124835973Y-107078503D01*
G37*
G04 #@! TD.AperFunction*
G04 #@! TA.AperFunction,NonConductor*
G36*
X122295973Y-107078503D02*
G01*
X122337003Y-107104284D01*
X122579921Y-107221267D01*
X122650411Y-107245932D01*
X122686209Y-107258459D01*
X122742985Y-107299180D01*
X122768732Y-107364133D01*
X122755276Y-107432695D01*
X122706888Y-107483098D01*
X122645254Y-107499500D01*
X121814746Y-107499500D01*
X121747707Y-107479815D01*
X121701952Y-107427011D01*
X121692008Y-107357853D01*
X121721033Y-107294297D01*
X121773791Y-107258459D01*
X121799608Y-107249424D01*
X121880079Y-107221267D01*
X122122997Y-107104284D01*
X122164027Y-107078503D01*
X122231264Y-107059502D01*
X122295973Y-107078503D01*
G37*
G04 #@! TD.AperFunction*
G04 #@! TA.AperFunction,NonConductor*
G36*
X119755973Y-107078503D02*
G01*
X119797003Y-107104284D01*
X120039921Y-107221267D01*
X120110411Y-107245932D01*
X120146209Y-107258459D01*
X120202985Y-107299180D01*
X120228732Y-107364133D01*
X120215276Y-107432695D01*
X120166888Y-107483098D01*
X120105254Y-107499500D01*
X119274746Y-107499500D01*
X119207707Y-107479815D01*
X119161952Y-107427011D01*
X119152008Y-107357853D01*
X119181033Y-107294297D01*
X119233791Y-107258459D01*
X119259608Y-107249424D01*
X119340079Y-107221267D01*
X119582997Y-107104284D01*
X119624027Y-107078503D01*
X119691264Y-107059502D01*
X119755973Y-107078503D01*
G37*
G04 #@! TD.AperFunction*
G04 #@! TA.AperFunction,NonConductor*
G36*
X117215973Y-107078503D02*
G01*
X117257003Y-107104284D01*
X117499921Y-107221267D01*
X117570411Y-107245932D01*
X117606209Y-107258459D01*
X117662985Y-107299180D01*
X117688732Y-107364133D01*
X117675276Y-107432695D01*
X117626888Y-107483098D01*
X117565254Y-107499500D01*
X116734746Y-107499500D01*
X116667707Y-107479815D01*
X116621952Y-107427011D01*
X116612008Y-107357853D01*
X116641033Y-107294297D01*
X116693791Y-107258459D01*
X116719608Y-107249424D01*
X116800079Y-107221267D01*
X117042997Y-107104284D01*
X117084027Y-107078503D01*
X117151264Y-107059502D01*
X117215973Y-107078503D01*
G37*
G04 #@! TD.AperFunction*
M02*
