M48
METRIC
T1C0.800
T2C1.000
T3C3.500
%
G90
G05
T1
X126.5Y-68.92
X126.5Y-79.08
X126.5Y-82.42
X126.5Y-92.58
X162.0Y-86.0
X162.0Y-91.0
X163.0Y-79.0
X168.0Y-79.0
T2
X115.5Y-64.83
X115.5Y-67.37
X115.5Y-69.91
X115.5Y-74.5
X115.5Y-77.04
X115.5Y-79.58
X115.5Y-84.96
X115.5Y-87.5
X115.5Y-90.04
X115.88Y-56.74
X115.88Y-105.0
X118.42Y-56.74
X118.42Y-105.0
X120.96Y-56.74
X120.96Y-105.0
X123.5Y-56.74
X123.5Y-105.0
X126.04Y-56.74
X126.04Y-105.0
X128.58Y-56.74
X128.58Y-105.0
X131.12Y-105.0
X133.66Y-56.74
X133.66Y-105.0
X136.2Y-56.74
X137.72Y-105.0
X138.74Y-56.74
X140.26Y-105.0
X141.28Y-56.74
X142.8Y-105.0
X143.82Y-56.74
X145.34Y-105.0
X146.36Y-56.74
X147.88Y-105.0
X148.9Y-56.74
X150.42Y-105.0
X151.44Y-56.74
X152.96Y-81.445
X152.96Y-105.0
X155.5Y-81.445
X155.5Y-105.0
X158.04Y-81.445
X158.04Y-105.0
X160.58Y-105.0
X177.5Y-76.5
X177.5Y-79.04
T3
X155.5Y-64.785
M30
